<?xml version="1.0" encoding="UTF-8" standalone="no"?>
<!DOCTYPE svg PUBLIC "-//W3C//DTD SVG 1.1//EN" "http://www.w3.org/Graphics/SVG/1.1/DTD/svg11.dtd">
<svg width="100%" height="100%" viewBox="0 0 591 591" version="1.1" xmlns="http://www.w3.org/2000/svg" xmlns:xlink="http://www.w3.org/1999/xlink" xml:space="preserve" xmlns:serif="http://www.serif.com/" style="fill-rule:evenodd;clip-rule:evenodd;stroke-linejoin:round;stroke-miterlimit:2;">
    <g transform="matrix(0.901639,0.901639,-0.901639,0.901639,300.935,-398.33)">
        <path d="M154.164,439.081C146.404,446.915 144.114,458.647 148.358,468.825C152.602,479.002 162.548,485.631 173.575,485.631L451.002,485.631C466.091,485.631 478.324,473.398 478.324,458.309L478.324,178.232C478.324,167.157 471.639,157.178 461.397,152.964C451.156,148.751 439.384,151.136 431.59,159.004C360.274,231.002 225.105,367.462 154.164,439.081ZM198.846,440.625C196.498,442.994 195.806,446.543 197.09,449.621C198.373,452.699 201.381,454.704 204.717,454.704C257.909,454.704 402.234,454.704 438.319,454.704C440.511,454.704 442.613,453.834 444.163,452.284C445.713,450.734 446.583,448.632 446.583,446.44C446.583,410.16 446.583,264.409 446.583,210.606C446.583,207.256 444.561,204.238 441.464,202.964C438.366,201.689 434.806,202.411 432.448,204.79C386.876,250.799 244.149,394.889 198.846,440.625Z" style="fill:rgb(112,128,161);"/>
    </g>
</svg>
