<?xml version="1.0" encoding="UTF-8" standalone="no"?>
<!DOCTYPE svg PUBLIC "-//W3C//DTD SVG 1.1//EN" "http://www.w3.org/Graphics/SVG/1.1/DTD/svg11.dtd">
<svg width="100%" height="100%" viewBox="0 0 591 591" version="1.1" xmlns="http://www.w3.org/2000/svg" xmlns:xlink="http://www.w3.org/1999/xlink" xml:space="preserve" xmlns:serif="http://www.serif.com/" style="fill-rule:evenodd;clip-rule:evenodd;stroke-linejoin:round;stroke-miterlimit:2;">
    <g transform="matrix(1.61236,0,0,1.61236,-763.827,-184.14)">
        <path d="M833.46,349.215L480.274,349.215C476.688,349.21 473.738,346.26 473.734,342.674L473.734,180.503C473.738,176.916 476.688,173.966 480.274,173.962L833.46,173.962C837.046,173.966 839.996,176.916 840,180.503L840,342.674C839.996,346.26 837.046,349.21 833.46,349.215Z" style="fill:white;fill-rule:nonzero;"/>
    </g>
    <g transform="matrix(1.61236,0,0,1.61236,-763.827,-184.14)">
        <path d="M833.46,349.215L480.274,349.215C476.688,349.21 473.738,346.26 473.734,342.674L473.734,180.503C473.738,176.916 476.688,173.966 480.274,173.962L833.46,173.962C837.046,173.966 839.996,176.916 840,180.503L840,342.674C839.996,346.26 837.046,349.21 833.46,349.215ZM480.274,176.578C478.122,176.581 476.352,178.351 476.35,180.503L476.35,342.674C476.352,344.826 478.122,346.596 480.274,346.598L833.46,346.598C835.611,346.596 837.381,344.826 837.384,342.674L837.384,180.503C837.381,178.351 835.611,176.581 833.46,176.578L480.274,176.578Z" style="fill:rgb(230,230,230);fill-rule:nonzero;"/>
    </g>
    <g transform="matrix(1.61236,0,0,1.61236,-474.006,-69.5265)">
        <circle cx="352.786" cy="160.326" r="26.642" style="fill:rgb(59,67,83);"/>
    </g>
    <g transform="matrix(1.61236,0,0,1.61236,-763.827,-184.14)">
        <path d="M594.067,213.649C594.065,213.649 594.063,213.649 594.06,213.649C591.624,213.649 589.62,215.654 589.62,218.09C589.62,220.526 591.624,222.53 594.06,222.53C594.063,222.53 594.065,222.53 594.067,222.53L803.4,222.53C805.836,222.53 807.84,220.526 807.84,218.09C807.84,215.654 805.836,213.649 803.4,213.649L594.067,213.649Z" style="fill:rgb(230,230,230);fill-rule:nonzero;"/>
    </g>
    <g transform="matrix(1.61236,0,0,1.61236,-763.827,-184.14)">
        <path d="M594.067,240.292C594.065,240.292 594.063,240.292 594.06,240.292C591.624,240.292 589.62,242.296 589.62,244.732C589.62,247.168 591.624,249.172 594.06,249.172C594.063,249.172 594.065,249.172 594.067,249.172L684.144,249.172C684.146,249.172 684.148,249.172 684.15,249.172C686.586,249.172 688.591,247.168 688.591,244.732C688.591,242.296 686.586,240.292 684.15,240.292C684.148,240.292 684.146,240.292 684.144,240.292L594.067,240.292Z" style="fill:rgb(230,230,230);fill-rule:nonzero;"/>
    </g>
    <g transform="matrix(1.61236,0,0,1.61236,-763.827,-184.14)">
        <path d="M512.1,282.885C508.723,282.885 505.974,284.877 505.974,287.326C505.974,289.774 508.723,291.766 512.1,291.766L800.915,291.766C804.293,291.766 807.042,289.774 807.042,287.326C807.042,284.877 804.293,282.885 800.915,282.885L512.1,282.885Z" style="fill:rgb(230,230,230);fill-rule:nonzero;"/>
    </g>
    <g transform="matrix(1.61236,0,0,1.61236,-763.827,-184.14)">
        <path d="M512.1,309.527C508.723,309.527 505.974,311.52 505.974,313.968C505.974,316.416 508.723,318.408 512.1,318.408L800.915,318.408C804.293,318.408 807.042,316.416 807.042,313.968C807.042,311.52 804.293,309.527 800.915,309.527L512.1,309.527Z" style="fill:rgb(230,230,230);fill-rule:nonzero;"/>
    </g>
    <g transform="matrix(1.0286,0,0,1.0286,-118.3,0)">
        <circle cx="590.1" cy="47.382" r="47.382" style="fill:rgb(224,119,125);"/>
    </g>
    <g transform="matrix(1.0286,0,0,1.0286,-118.3,-1.00335)">
        <path d="M590.1,124.408L575.284,98.747L560.469,73.086L619.73,73.086L590.1,124.408Z" style="fill:rgb(224,119,125);fill-rule:nonzero;"/>
    </g>
    <g transform="matrix(1.0286,0,0,1.0286,-118.3,0)">
        <circle cx="590.482" cy="47.086" r="17" style="fill:white;"/>
    </g>
</svg>
