<?xml version="1.0" encoding="UTF-8" standalone="no"?>
<!DOCTYPE svg PUBLIC "-//W3C//DTD SVG 1.1//EN" "http://www.w3.org/Graphics/SVG/1.1/DTD/svg11.dtd">
<svg width="100%" height="100%" viewBox="0 0 591 591" version="1.1" xmlns="http://www.w3.org/2000/svg" xmlns:xlink="http://www.w3.org/1999/xlink" xml:space="preserve" xmlns:serif="http://www.serif.com/" style="fill-rule:evenodd;clip-rule:evenodd;stroke-linejoin:round;stroke-miterlimit:2;">
    <g transform="matrix(1.20498,0,0,1.20498,-53.2069,-324.649)">
        <path d="M534.25,438.618L418.25,300.618L185.404,302.746L44.156,440.325L47.01,442.159L45.991,442.159L45.991,728.324L533.937,728.324L533.937,442.159L534.25,438.618Z" style="fill:rgb(59,67,83);fill-rule:nonzero;"/>
    </g>
    <g transform="matrix(1.20498,0,0,1.20498,-53.2069,-324.649)">
        <path d="M418.371,300.912L273.455,470.811L273.455,728.324L533.937,728.324L533.937,438.491L418.371,300.912Z" style="fill:rgb(224,119,125);fill-rule:nonzero;"/>
    </g>
    <g transform="matrix(1.20498,0,0,1.20498,-53.2069,-324.649)">
        <rect x="378.015" y="585.915" width="53.197" height="47.02" style="fill:white;"/>
    </g>
    <g transform="matrix(1.20498,0,0,1.20498,-53.2069,-324.649)">
        <rect x="378.015" y="504.529" width="53.197" height="46.275" style="fill:white;"/>
    </g>
    <g transform="matrix(1.20498,0,0,1.20498,-53.2069,-324.649)">
        <rect x="141.602" y="573.439" width="53.197" height="47.02" style="fill:white;"/>
    </g>
    <g transform="matrix(1.20498,0,0,1.20498,-53.2069,-324.649)">
        <rect x="141.602" y="492.052" width="53.197" height="46.275" style="fill:white;"/>
    </g>
</svg>
