<?xml version="1.0" encoding="UTF-8" standalone="no"?>
<!DOCTYPE svg PUBLIC "-//W3C//DTD SVG 1.1//EN" "http://www.w3.org/Graphics/SVG/1.1/DTD/svg11.dtd">
<svg width="100%" height="100%" viewBox="0 0 591 591" version="1.1" xmlns="http://www.w3.org/2000/svg" xmlns:xlink="http://www.w3.org/1999/xlink" xml:space="preserve" xmlns:serif="http://www.serif.com/" style="fill-rule:evenodd;clip-rule:evenodd;stroke-linejoin:round;stroke-miterlimit:2;">
    <g transform="matrix(2.49574,0,0,2.49574,-1079.48,1.35003e-13)">
        <rect x="465.651" y="1.581" width="19.027" height="65.862" style="fill:rgb(59,67,83);"/>
    </g>
    <g transform="matrix(2.49574,0,0,2.49574,-1079.48,1.35003e-13)">
        <path d="M453.211,56.466L453.211,236.624L647.869,236.624L647.869,56.466L647.462,56.466L648.601,55.734L592.252,0.849L499.362,0L453.086,55.053L453.211,56.466Z" style="fill:rgb(59,67,83);fill-rule:nonzero;"/>
    </g>
    <g transform="matrix(2.49574,0,0,2.49574,-1079.48,1.35003e-13)">
        <path d="M453.211,55.002L453.211,236.624L557.126,236.624L557.126,67.896L499.314,0.117L453.211,55.002Z" style="fill:rgb(224,119,125);fill-rule:nonzero;"/>
    </g>
    <g transform="matrix(2.49574,0,0,2.49574,-1079.48,1.35003e-13)">
        <rect x="494.191" y="113.815" width="21.222" height="18.758" style="fill:rgb(63,61,86);"/>
    </g>
    <g transform="matrix(2.49574,0,0,2.49574,-1079.48,1.35003e-13)">
        <rect x="494.191" y="81.347" width="21.222" height="18.46" style="fill:rgb(63,61,86);"/>
    </g>
    <g transform="matrix(2.49574,0,0,2.49574,-1079.48,1.35003e-13)">
        <rect x="494.191" y="113.815" width="21.222" height="18.758" style="fill:white;"/>
    </g>
    <g transform="matrix(2.49574,0,0,2.49574,-1079.48,1.35003e-13)">
        <rect x="494.191" y="81.347" width="21.222" height="18.46" style="fill:white;"/>
    </g>
    <g transform="matrix(2.49574,0,0,2.49574,-1079.48,1.35003e-13)">
        <rect x="588.504" y="108.837" width="21.222" height="18.758" style="fill:rgb(63,61,86);"/>
    </g>
    <g transform="matrix(2.49574,0,0,2.49574,-1079.48,1.35003e-13)">
        <rect x="588.504" y="76.37" width="21.222" height="18.46" style="fill:rgb(63,61,86);"/>
    </g>
    <g transform="matrix(2.49574,0,0,2.49574,-1079.48,1.35003e-13)">
        <rect x="588.504" y="108.837" width="21.222" height="18.758" style="fill:white;"/>
    </g>
    <g transform="matrix(2.49574,0,0,2.49574,-1079.48,1.35003e-13)">
        <rect x="588.504" y="76.37" width="21.222" height="18.46" style="fill:white;"/>
    </g>
    <g transform="matrix(2.49574,0,0,2.49574,-1079.48,1.35003e-13)">
        <rect x="494.191" y="179.812" width="21.222" height="18.758" style="fill:white;"/>
    </g>
    <g transform="matrix(2.49574,0,0,2.49574,-1079.48,1.35003e-13)">
        <rect x="494.191" y="147.344" width="21.222" height="18.46" style="fill:white;"/>
    </g>
    <g transform="matrix(2.49574,0,0,2.49574,-1079.48,1.35003e-13)">
        <rect x="588.504" y="174.835" width="21.222" height="18.758" style="fill:white;"/>
    </g>
    <g transform="matrix(2.49574,0,0,2.49574,-1079.48,1.35003e-13)">
        <rect x="588.504" y="142.367" width="21.222" height="18.46" style="fill:white;"/>
    </g>
</svg>
