<?xml version="1.0" encoding="UTF-8" standalone="no"?>
<!DOCTYPE svg PUBLIC "-//W3C//DTD SVG 1.1//EN" "http://www.w3.org/Graphics/SVG/1.1/DTD/svg11.dtd">
<svg width="100%" height="100%" viewBox="0 0 591 591" version="1.1" xmlns="http://www.w3.org/2000/svg" xmlns:xlink="http://www.w3.org/1999/xlink" xml:space="preserve" xmlns:serif="http://www.serif.com/" style="fill-rule:evenodd;clip-rule:evenodd;stroke-linejoin:round;stroke-miterlimit:2;">
    <g transform="matrix(1.55178,0,0,1.55178,-567.418,-196.261)">
        <path d="M594.783,499.316L583.351,499.315L577.915,455.219L594.787,455.221L594.783,499.316Z" style="fill:rgb(255,184,184);fill-rule:nonzero;"/>
    </g>
    <g transform="matrix(1.55178,0,0,1.55178,-567.418,-196.261)">
        <path d="M575.185,496.048L597.233,496.048L597.233,509.93L561.303,509.93C561.303,509.93 561.303,509.93 561.303,509.93C561.303,502.315 567.57,496.048 575.185,496.048Z" style="fill:rgb(38,41,48);fill-rule:nonzero;"/>
    </g>
    <g transform="matrix(1.55178,0,0,1.55178,-567.418,-196.261)">
        <path d="M549.283,499.316L537.851,499.315L532.415,455.219L549.287,455.221L549.283,499.316Z" style="fill:rgb(255,184,184);fill-rule:nonzero;"/>
    </g>
    <g transform="matrix(1.55178,0,0,1.55178,-567.418,-196.261)">
        <path d="M529.685,496.048L551.733,496.048L551.733,509.93L515.803,509.93C515.803,509.93 515.803,509.93 515.803,509.93C515.803,502.315 522.07,496.048 529.685,496.048Z" style="fill:rgb(38,41,48);fill-rule:nonzero;"/>
    </g>
    <g transform="matrix(1.55178,0,0,1.55178,-964.569,-498.47)">
        <path d="M859.523,541.616C857.962,539.892 857.097,537.648 857.097,535.322C857.097,532.095 858.763,529.086 861.499,527.374L857.958,506.24L870.276,500.956L874.857,530.871C875.594,532.243 875.98,533.776 875.98,535.333C875.98,540.505 871.724,544.761 866.553,544.761C863.87,544.761 861.311,543.616 859.523,541.616L859.523,541.616Z" style="fill:rgb(255,184,184);fill-rule:nonzero;"/>
    </g>
    <g transform="matrix(1.55178,0,0,1.55178,-964.569,-498.47)">
        <path d="M763.085,531.63C765.333,529.853 766.646,527.14 766.646,524.275C766.646,521.593 765.496,519.036 763.489,517.257L770.472,496.999L759.197,489.753L749.736,518.5C748.457,520.152 747.762,522.183 747.762,524.273C747.762,529.444 752.018,533.7 757.19,533.7C759.333,533.7 761.413,532.97 763.085,531.63Z" style="fill:rgb(255,184,184);fill-rule:nonzero;"/>
    </g>
    <g transform="matrix(1.55178,0,0,1.55178,-567.418,-196.261)">
        <circle cx="565.702" cy="163.08" r="24.561" style="fill:rgb(255,184,184);"/>
    </g>
    <g transform="matrix(1.55178,0,0,1.55178,-964.569,-498.47)">
        <path d="M762.326,516.474C761.904,516.474 761.485,516.415 761.08,516.298L753.922,514.243C751.558,513.559 750.167,511.06 750.834,508.691L765.608,456.529L786.21,405.954C788.258,400.926 792.538,397.629 797.38,397.349C801.889,397.129 806.124,399.596 808.158,403.626C810.402,407.91 810.534,413.002 808.515,417.396L785.098,468.607L766.481,513.69C765.789,515.371 764.143,516.473 762.326,516.474Z" style="fill:rgb(112,128,161);fill-rule:nonzero;"/>
    </g>
    <g transform="matrix(1.55178,0,0,1.55178,-964.569,-498.47)">
        <path d="M835.495,378.427L821.849,378.67C821.789,378.671 821.73,378.671 821.67,378.671C816.693,378.671 812.597,374.575 812.597,369.598C812.597,368.746 812.717,367.898 812.953,367.08C813.245,366.093 813.464,365.086 813.609,364.067C813.762,362.956 813.792,361.831 813.698,360.714C813.5,358.148 811.334,356.143 808.761,356.143C806.721,356.143 804.881,357.404 804.144,359.305C801.849,359.338 796.961,358.59 794.666,358.623C789.794,346.133 800.411,329.789 811.84,323.651C823.491,317.393 838.615,323.759 843.082,336.802C849.28,336.914 854.316,343.027 855.115,349.909C855.914,356.79 853.083,363.976 848.752,369.251C844.421,374.525 838.734,378.369 835.495,378.427Z" style="fill:rgb(47,46,65);fill-rule:nonzero;"/>
    </g>
    <g transform="matrix(1.55178,0,0,1.55178,-964.569,-498.47)">
        <path d="M790.637,689.949C788.36,689.937 786.431,688.203 786.176,685.939L781.113,515.704L844.9,520.245L844.949,520.655C859.364,641.317 854.436,683.086 854.385,683.494C854.249,685.861 852.264,687.735 849.894,687.735C849.698,687.735 849.503,687.722 849.309,687.697L835.213,688.035C833.014,687.786 831.309,685.95 831.224,683.739L818.052,560.439C817.885,559.781 817.263,559.333 816.586,559.383C815.889,559.381 815.283,559.877 815.147,560.56L810.058,684.264C810.17,686.635 808.379,688.704 806.017,688.934L791.085,689.927C790.936,689.942 790.787,689.949 790.637,689.949Z" style="fill:rgb(38,41,48);fill-rule:nonzero;"/>
    </g>
    <g transform="matrix(1.55178,0,0,1.55178,-964.569,-498.47)">
        <path d="M817.106,536.045C816.724,536.045 816.343,536.039 815.961,536.027C797.619,535.475 783.269,521.598 779.308,517.358C778.285,516.261 777.878,514.72 778.227,513.261L788.808,468.497L786.001,429.58C785.11,418.66 788.937,407.866 796.507,399.946C802.817,393.28 811.723,389.677 820.893,390.081C838.748,390.933 852.834,406.892 852.962,426.413C853.159,456.648 852.269,458.725 851.977,459.408C843.066,480.205 847.933,509.397 849.636,517.849C849.946,519.381 849.439,520.968 848.299,522.037C838.499,531.335 828.009,536.044 817.106,536.045Z" style="fill:rgb(112,128,161);fill-rule:nonzero;"/>
    </g>
    <g transform="matrix(1.55178,0,0,1.55178,-964.569,-498.47)">
        <path d="M863.171,524.666C861.082,524.665 859.256,523.208 858.79,521.172L847.874,473.615L833.243,419.257C831.977,414.59 832.949,409.589 835.87,405.735C838.543,402.098 843.126,400.365 847.537,401.325C852.265,402.401 855.942,406.36 857.132,411.657L869.086,464.886L875.049,518.827C875.314,521.273 873.53,523.508 871.086,523.792L863.686,524.636C863.515,524.656 863.343,524.666 863.171,524.666Z" style="fill:rgb(112,128,161);fill-rule:nonzero;"/>
    </g>
</svg>
