<?xml version="1.0" encoding="UTF-8" standalone="no"?>
<!DOCTYPE svg PUBLIC "-//W3C//DTD SVG 1.1//EN" "http://www.w3.org/Graphics/SVG/1.1/DTD/svg11.dtd">
<svg width="100%" height="100%" viewBox="0 0 591 591" version="1.1" xmlns="http://www.w3.org/2000/svg" xmlns:xlink="http://www.w3.org/1999/xlink" xml:space="preserve" xmlns:serif="http://www.serif.com/" style="fill-rule:evenodd;clip-rule:evenodd;stroke-linejoin:round;stroke-miterlimit:2;">
    <g transform="matrix(1.46966,0,0,1.46966,-211.608,-504.972)">
        <path d="M315.09,570.537C318.01,568.536 319.759,565.216 319.759,561.676C319.759,558.858 318.65,556.149 316.672,554.14L320.839,461.122L299.624,463.504L300.856,554.488C299.097,556.465 298.125,559.022 298.125,561.668C298.125,567.593 303.001,572.469 308.926,572.469C311.129,572.469 313.281,571.795 315.09,570.537Z" style="fill:rgb(122,84,67);fill-rule:nonzero;"/>
    </g>
    <g transform="matrix(1.46966,0,0,1.46966,206.157,-280.07)">
        <path d="M69.534,574.966L81.609,577.089L93.543,531.525L77.722,528.392L69.534,574.966Z" style="fill:rgb(122,84,67);fill-rule:nonzero;"/>
    </g>
    <g transform="matrix(-1.44747,-0.254466,0.254466,-1.44747,679.294,1732.44)">
        <path d="M350.232,727.314L388.763,727.314L388.763,742.201L365.119,742.201C356.953,742.201 350.232,735.481 350.232,727.314C350.232,727.314 350.232,727.314 350.232,727.314Z" style="fill:rgb(35,35,35);fill-rule:nonzero;"/>
    </g>
    <g transform="matrix(1.46966,0,0,1.46966,206.157,-280.07)">
        <path d="M36.392,581.01L48.652,581.01L54.484,533.722L36.39,533.723L36.392,581.01Z" style="fill:rgb(122,84,67);fill-rule:nonzero;"/>
    </g>
    <g transform="matrix(-1.46966,6.72043e-05,-6.72043e-05,-1.46966,779.846,1664.17)">
        <path d="M318.024,730.536L356.555,730.536L356.555,745.423L332.911,745.423C324.744,745.423 318.024,738.703 318.024,730.536L318.024,730.536Z" style="fill:rgb(35,35,35);fill-rule:nonzero;"/>
    </g>
    <g transform="matrix(1.46966,0,0,1.46966,-211.608,-504.972)">
        <path d="M372.804,721.09C372.612,721.091 372.421,721.079 372.231,721.057L357.801,719.869C355.355,719.581 353.49,717.485 353.49,715.022C353.49,714.75 353.513,714.478 353.558,714.21L366.883,639.529L357.88,592.055C357.734,591.29 357.059,590.732 356.281,590.732C355.443,590.732 354.735,591.38 354.661,592.215L343.405,718.842C343.149,721.467 340.828,723.445 338.195,723.279L324.6,722.773C322.147,722.599 320.187,720.599 320.064,718.142L319.15,566.375L389.631,557.565L394.555,633.605L394.535,633.686L377.545,717.361C377.014,719.54 375.047,721.088 372.804,721.09Z" style="fill:rgb(35,35,35);fill-rule:nonzero;"/>
    </g>
    <g transform="matrix(1.46966,0,0,1.46966,206.157,-280.07)">
        <circle cx="58.129" cy="223.255" r="24.561" style="fill:rgb(122,84,67);"/>
    </g>
    <g transform="matrix(1.46966,0,0,1.46966,-211.608,-504.972)">
        <path d="M365.53,577.467C361.689,577.49 357.921,576.412 354.673,574.361C342.776,566.925 329.263,569.881 322.266,572.304C320.861,572.796 319.305,572.619 318.046,571.823C316.802,571.042 315.981,569.732 315.822,568.272L303.099,454.646C300.967,435.608 312.435,417.709 330.367,412.086C331.04,411.875 331.725,411.675 332.422,411.485C343.711,408.424 355.796,410.522 365.394,417.208C375.17,423.968 381.462,434.726 382.561,446.561L393.271,560.948C393.419,562.448 392.853,563.934 391.744,564.955C387.99,568.428 377.092,577.466 365.53,577.467Z" style="fill:rgb(224,119,125);fill-rule:nonzero;"/>
    </g>
    <g transform="matrix(1.46966,0,0,1.46966,-211.608,-504.972)">
        <path d="M326.789,479.012L298.086,475.856C295.202,475.539 292.993,473.074 292.993,470.173C292.993,469.684 293.056,469.196 293.18,468.722L300.486,440.876C301.409,432.905 308.235,426.822 316.26,426.822C324.97,426.822 332.138,433.99 332.138,442.701C332.138,443.282 332.106,443.862 332.043,444.439L333.127,473.115C333.13,473.186 333.131,473.258 333.131,473.329C333.131,476.466 330.55,479.046 327.414,479.046C327.205,479.046 326.997,479.035 326.789,479.012L326.789,479.012Z" style="fill:rgb(224,119,125);fill-rule:nonzero;"/>
    </g>
    <g transform="matrix(1.46966,0,0,1.46966,-211.608,-504.972)">
        <path d="M393.156,566.554C395.472,564.515 396.801,561.575 396.801,558.49C396.801,555.22 395.308,552.123 392.751,550.086L385.678,457.244L364.889,461.924L377.092,552.338C375.839,554.145 375.167,556.293 375.167,558.492C375.167,564.418 380.043,569.293 385.968,569.293C388.618,569.293 391.178,568.318 393.156,566.554Z" style="fill:rgb(122,84,67);fill-rule:nonzero;"/>
    </g>
    <g transform="matrix(1.46966,0,0,1.46966,-211.608,-504.972)">
        <path d="M356.919,473.176C355.702,472.045 355.038,470.437 355.101,468.776L356.185,440.101C356.122,439.523 356.09,438.943 356.09,438.362C356.09,429.652 363.258,422.484 371.968,422.484C379.993,422.484 386.819,428.566 387.742,436.538L395.048,464.384C395.172,464.857 395.235,465.345 395.235,465.834C395.235,468.736 393.026,471.201 390.142,471.518L361.439,474.674C359.787,474.856 358.135,474.309 356.919,473.176Z" style="fill:rgb(224,119,125);fill-rule:nonzero;"/>
    </g>
    <g transform="matrix(1.46966,0,0,1.46966,-211.608,-504.972)">
        <path d="M340.927,401.771C340.49,401.771 340.055,401.72 339.63,401.62L339.506,401.589C317.911,398.286 313.139,385.778 312.091,380.554C311.007,375.146 312.242,369.926 315.031,367.898C313.51,363.096 313.755,358.837 315.759,355.236C319.254,348.956 326.84,346.833 327.857,346.573C333.915,342.104 341.163,345.087 342.482,345.692C354.201,341.356 358.68,344.965 359.49,345.771C364.728,346.712 367.921,348.735 368.981,351.787C370.972,357.518 364.676,364.646 364.407,364.947L364.267,365.103L354.887,365.55C351.517,365.711 348.832,368.527 348.832,371.901C348.832,372.224 348.857,372.547 348.906,372.867C349.16,374.003 349.48,375.124 349.866,376.222C351.468,381.229 352.668,385.505 351.12,387.131C350.406,387.772 349.384,387.95 348.495,387.586C347.028,387.195 346.033,387.277 345.537,387.831C344.766,388.69 345.001,390.866 346.199,393.957C346.963,395.946 346.559,398.203 345.153,399.804C344.1,401.045 342.555,401.765 340.927,401.771Z" style="fill:rgb(35,35,37);fill-rule:nonzero;"/>
    </g>
</svg>
