<?xml version="1.0" encoding="UTF-8" standalone="no"?>
<!DOCTYPE svg PUBLIC "-//W3C//DTD SVG 1.1//EN" "http://www.w3.org/Graphics/SVG/1.1/DTD/svg11.dtd">
<svg width="100%" height="100%" viewBox="0 0 591 591" version="1.1" xmlns="http://www.w3.org/2000/svg" xmlns:xlink="http://www.w3.org/1999/xlink" xml:space="preserve" xmlns:serif="http://www.serif.com/" style="fill-rule:evenodd;clip-rule:evenodd;stroke-linejoin:round;stroke-miterlimit:2;">
    <g transform="matrix(1.00423,0,0,1.00423,-94.8365,-144.049)">
        <circle cx="334.42" cy="179.978" r="30.588" style="fill:rgb(160,97,106);"/>
    </g>
    <g transform="matrix(1.00423,0,0,1.00423,-371.703,-226.056)">
        <path d="M578.705,317.029L630.787,316.202C626.307,303.858 624.366,292.3 627.48,282.307L587.799,278.174C593.16,291.126 590.129,304.077 578.705,317.029Z" style="fill:rgb(160,97,106);fill-rule:nonzero;"/>
    </g>
    <g transform="matrix(1.00423,0,0,1.00423,-371.703,-226.056)">
        <path d="M533.236,522.052L541.885,545.115C542.473,546.683 542.774,548.344 542.774,550.019C542.774,557.045 537.472,563.032 530.498,563.883C529.937,563.951 529.373,563.985 528.808,563.985C521.146,563.985 514.842,557.681 514.842,550.019C514.842,549.84 514.845,549.661 514.852,549.482L515.875,522.879L523.315,386.472L553.904,395.566L533.236,522.052Z" style="fill:rgb(160,97,106);fill-rule:nonzero;"/>
    </g>
    <g transform="matrix(1.00423,0,0,1.00423,-94.8365,-144.049)">
        <path d="M289.778,696.669L314.579,694.189L336.9,477.592L368.315,698.323L391.463,697.496L397.25,455.271L286.471,455.271L289.778,696.669Z" style="fill:rgb(59,67,83);fill-rule:nonzero;"/>
    </g>
    <g transform="matrix(1.00423,0,0,1.00423,-371.703,-226.056)">
        <path d="M646.495,250.066C646.495,250.066 638.228,268.253 632.441,269.08C626.654,269.907 616.733,279 618.387,283.134C620.04,287.268 619.213,299.668 602.679,298.015C586.145,296.361 586.972,294.708 586.972,294.708C586.972,294.708 560.517,244.279 587.799,231.052C615.08,217.824 639.054,227.745 646.495,250.066Z" style="fill:rgb(43,43,46);fill-rule:nonzero;"/>
    </g>
    <g transform="matrix(1.00423,0,0,1.00423,-371.703,-226.056)">
        <path d="M668.427,767.325L667.433,788.192C667.433,788.192 682.578,811.813 663.699,811.813C663.51,811.813 663.885,811.813 663.699,811.813C650.045,811.769 637.705,817.914 639.319,804.356L641.599,785.211L645.573,764.344L668.427,767.325Z" style="fill:rgb(59,67,83);fill-rule:nonzero;"/>
    </g>
    <g transform="matrix(1.00423,0,0,1.00423,-371.703,-226.056)">
        <path d="M565.684,767.325L566.678,788.192C566.678,788.192 551.533,811.813 570.412,811.813C570.601,811.813 570.226,811.813 570.412,811.813C584.066,811.769 596.406,817.914 594.792,804.356L592.513,785.211L588.538,764.344L565.684,767.325Z" style="fill:rgb(59,67,83);fill-rule:nonzero;"/>
    </g>
    <g transform="matrix(1.00423,0,0,1.00423,-371.703,-226.056)">
        <path d="M553.077,546.853L676.256,541.066C653.283,467.346 653.113,407.025 682.043,351.481C682.043,339.627 674.956,328.857 664.069,324.167L628.307,308.762L582.838,311.242L552.836,327.743C540.867,334.326 533.681,347.222 534.379,360.863C560.646,423.566 562.146,485.396 553.077,546.853Z" style="fill:rgb(230,230,230);fill-rule:nonzero;"/>
    </g>
    <g transform="matrix(1.00423,0,0,1.00423,-371.703,-226.056)">
        <path d="M575.398,403.006L506.781,391.433L518.086,363.365C526.126,343.405 542.488,327.916 562.858,320.981L569.611,318.682L575.398,403.006Z" style="fill:rgb(230,230,230);fill-rule:nonzero;"/>
    </g>
    <g transform="matrix(1.00423,0,0,1.00423,-371.703,-226.056)">
        <path d="M790.634,339.906L811.756,331.105C817.677,328.638 821.553,322.824 821.553,316.41C821.553,313.406 820.703,310.463 819.101,307.922C816.189,303.301 811.095,300.491 805.633,300.491C800.993,300.491 796.577,302.52 793.554,306.041L777.881,324.298L716.446,368.384L674.683,351.048L669.707,385.687L721.884,399.276L790.634,339.906Z" style="fill:rgb(160,97,106);fill-rule:nonzero;"/>
    </g>
    <g transform="matrix(1.00423,0,0,1.00423,-371.703,-226.056)">
        <path d="M679.3,399.103L713.3,367.103L704.3,356.103C696.257,336.132 677.763,327.92 657.381,320.981L650.628,318.682L645.3,373.103L679.3,399.103Z" style="fill:rgb(230,230,230);fill-rule:nonzero;"/>
    </g>
</svg>
