<?xml version="1.0" encoding="UTF-8" standalone="no"?>
<!DOCTYPE svg PUBLIC "-//W3C//DTD SVG 1.1//EN" "http://www.w3.org/Graphics/SVG/1.1/DTD/svg11.dtd">
<svg width="100%" height="100%" viewBox="0 0 591 591" version="1.1" xmlns="http://www.w3.org/2000/svg" xmlns:xlink="http://www.w3.org/1999/xlink" xml:space="preserve" xmlns:serif="http://www.serif.com/" style="fill-rule:evenodd;clip-rule:evenodd;stroke-linejoin:round;stroke-miterlimit:2;">
    <g transform="matrix(-1.29765,0.428609,-0.428609,-1.29765,856.343,573.28)">
        <path d="M151.077,442.197C143.836,449.507 141.699,460.453 145.659,469.95C149.619,479.446 158.9,485.631 169.189,485.631L452.831,485.631C466.91,485.631 478.324,474.217 478.324,460.138C478.324,401.795 478.324,257.179 478.324,173.786C478.324,163.453 472.087,154.142 462.531,150.21C452.975,146.279 441.991,148.504 434.719,155.845C363.275,227.972 222.14,370.455 151.077,442.197ZM197.912,441.568C195.722,443.778 195.076,447.089 196.273,449.961C197.471,452.834 200.278,454.704 203.39,454.704C255.734,454.704 403.44,454.704 438.873,454.704C443.131,454.704 446.583,451.252 446.583,446.994C446.583,411.37 446.583,262.207 446.583,209.261C446.583,206.136 444.697,203.32 441.806,202.131C438.916,200.941 435.594,201.615 433.395,203.835C388.578,249.08 242.462,396.592 197.912,441.568Z" style="fill:rgb(224,119,125);"/>
    </g>
</svg>
