<?xml version="1.0" encoding="UTF-8" standalone="no"?>
<!DOCTYPE svg PUBLIC "-//W3C//DTD SVG 1.1//EN" "http://www.w3.org/Graphics/SVG/1.1/DTD/svg11.dtd">
<svg width="100%" height="100%" viewBox="0 0 591 591" version="1.1" xmlns="http://www.w3.org/2000/svg" xmlns:xlink="http://www.w3.org/1999/xlink" xml:space="preserve" xmlns:serif="http://www.serif.com/" style="fill-rule:evenodd;clip-rule:evenodd;stroke-linejoin:round;stroke-miterlimit:2;">
    <g transform="matrix(2.44644,0,0,2.44644,-328.97,-259.781)">
        <path d="M202.439,245.882C184.397,239.855 171.377,222.814 171.377,202.755C171.377,177.666 191.746,157.297 216.835,157.297C241.924,157.297 262.293,177.666 262.293,202.755C262.293,222.814 249.273,239.855 231.232,245.882L231.232,303.263L216.835,310.617L206.594,305.662L206.594,295.276L202.439,288.866L202.439,283.867L206.616,281.868L206.616,279.246L202.439,275.069L202.439,268.871L207.194,266.671L207.194,259.473L202.439,254.474L202.439,245.882ZM216.835,180.891C221.094,180.891 224.552,184.349 224.552,188.608C224.552,192.867 221.094,196.325 216.835,196.325C212.576,196.325 209.118,192.867 209.118,188.608C209.118,184.349 212.576,180.891 216.835,180.891Z" style="fill:rgb(59,67,83);"/>
    </g>
    <g transform="matrix(3.79834,0,0,3.79834,-139.88,-647.522)">
        <path d="M76.624,206.562C80.605,204.536 85.108,203.394 89.877,203.394C106.036,203.394 119.156,216.513 119.156,232.672C119.156,245.592 110.77,256.568 99.15,260.45L99.15,265.846C90.696,264.492 82.217,259.687 75.911,251.862C63.923,236.988 64.268,216.762 76.624,206.562ZM93.384,220.04C92.485,219.144 91.245,218.59 89.877,218.59C87.134,218.59 84.907,220.817 84.907,223.561C84.907,225.658 86.208,227.453 88.047,228.183C90.095,230.713 93.484,231.373 95.617,229.655C97.753,227.933 97.824,224.473 95.777,221.933C95.096,221.088 94.267,220.451 93.384,220.04Z" style="fill:rgb(49,55,67);"/>
    </g>
    <g transform="matrix(1.72989,-1.72989,1.72989,1.72989,-499.537,250.497)">
        <path d="M202.439,245.882C184.397,239.855 171.377,222.814 171.377,202.755C171.377,177.666 191.746,157.297 216.835,157.297C241.924,157.297 262.293,177.666 262.293,202.755C262.293,222.814 249.273,239.855 231.232,245.882L231.232,303.263L216.835,310.617L206.594,305.662L206.594,295.276L202.439,288.866L202.439,283.867L206.616,281.868L206.616,279.246L202.439,275.069L202.439,268.871L207.194,266.671L207.194,259.473L202.439,254.474L202.439,245.882ZM216.835,180.891C221.094,180.891 224.552,184.349 224.552,188.608C224.552,192.867 221.094,196.325 216.835,196.325C212.576,196.325 209.118,192.867 209.118,188.608C209.118,184.349 212.576,180.891 216.835,180.891Z" style="fill:rgb(143,82,89);"/>
    </g>
    <g transform="matrix(3.79834,0,0,3.79834,-139.88,-647.522)">
        <path d="M73.873,211.316C74.447,210.625 75.058,209.955 75.704,209.308C87.131,197.882 105.684,197.882 117.111,209.308C126.246,218.444 128.078,232.135 122.606,243.096L128.995,249.485C122.259,253.387 113.733,255.433 104.623,254.795C84.296,253.373 68.71,239.13 69.838,223.01C70.135,218.766 71.561,214.812 73.873,211.316ZM93.398,219.975C91.453,218.115 88.363,218.141 86.45,220.054C84.51,221.994 84.51,225.143 86.45,227.083C87.703,228.336 89.461,228.78 91.071,228.414C92.088,229.152 93.401,229.642 94.859,229.744C98.309,229.985 101.266,227.96 101.458,225.223C101.649,222.487 99.003,220.069 95.553,219.828C94.803,219.775 94.078,219.83 93.398,219.975Z" style="fill:rgb(88,65,67);"/>
    </g>
    <g transform="matrix(1.35804e-16,-2.44644,2.44644,1.35804e-16,-259.647,732.111)">
        <path d="M202.439,245.882C184.397,239.855 171.377,222.814 171.377,202.755C171.377,177.666 191.746,157.297 216.835,157.297C241.924,157.297 262.293,177.666 262.293,202.755C262.293,222.814 249.273,239.855 231.232,245.882L231.232,303.263L216.835,310.617L206.594,305.662L206.594,295.276L202.439,288.866L202.439,283.867L206.616,281.868L206.616,279.246L202.439,275.069L202.439,268.871L207.194,266.671L207.194,259.473L202.439,254.474L202.439,245.882ZM216.835,180.891C221.094,180.891 224.552,184.349 224.552,188.608C224.552,192.867 221.094,196.325 216.835,196.325C212.576,196.325 209.118,192.867 209.118,188.608C209.118,184.349 212.576,180.891 216.835,180.891Z" style="fill:rgb(215,94,94);"/>
    </g>
</svg>
