<?xml version="1.0" encoding="UTF-8" standalone="no"?>
<!DOCTYPE svg PUBLIC "-//W3C//DTD SVG 1.1//EN" "http://www.w3.org/Graphics/SVG/1.1/DTD/svg11.dtd">
<svg width="100%" height="100%" viewBox="0 0 591 591" version="1.1" xmlns="http://www.w3.org/2000/svg" xmlns:xlink="http://www.w3.org/1999/xlink" xml:space="preserve" xmlns:serif="http://www.serif.com/" style="fill-rule:evenodd;clip-rule:evenodd;stroke-linejoin:round;stroke-miterlimit:2;">
    <g transform="matrix(0.519394,0,0,0.519394,-16.3609,61.5482)">
        <path d="M157.398,712.972L155.447,712.532C177.203,615.781 231.877,527.923 309.398,465.141C388.417,401.245 487.023,366.366 588.643,366.366C795.004,366.366 975.492,510.197 1021.55,711.352L1019.6,711.795C973.55,509.586 796.329,368.361 588.634,368.361C383.66,368.361 202.3,513.29 157.398,712.972Z" style="fill:rgb(63,61,86);fill-rule:nonzero;"/>
    </g>
    <g transform="matrix(0.519394,0,0,0.519394,0,157.333)">
        <path d="M1051.5,482.5L1054.5,504.5L1033.5,506.5L1036.5,479.5L1051.5,482.5Z" style="fill:rgb(160,97,106);fill-rule:nonzero;"/>
    </g>
    <g transform="matrix(0.519394,0,0,0.519394,-16.3609,61.5482)">
        <path d="M984,364.916C984,364.916 986,391.916 986,392.916C986,393.916 972,462.916 972,462.916C972,462.916 952,500.916 972,499.916C992,498.916 986,463.916 986,463.916L1007,405.916L998,364.916L984,364.916Z" style="fill:rgb(160,97,106);fill-rule:nonzero;"/>
    </g>
    <g transform="matrix(0.519394,0,0,0.519394,0,157.333)">
        <path d="M985.5,482.5L982.5,504.5L1003.5,506.5L1000.5,479.5L985.5,482.5Z" style="fill:rgb(160,97,106);fill-rule:nonzero;"/>
    </g>
    <g transform="matrix(0.519394,0,0,0.519394,-16.3609,61.5482)">
        <path d="M994,460.916L989,467.916C989,467.916 986,497.916 989,507.916C992,517.916 998,563.916 998,566.916C998,569.916 999,571.916 998,572.916C997,573.916 994,573.916 996,575.916C998,577.916 998,583.916 998,583.916L998,588.916L1011,662.916C1011,662.916 1003,671.916 1009,671.916C1015,671.916 1037,671.916 1036,661.916L1034,660.916C1034,660.916 1031,594.916 1032,591.916C1033,588.916 1032,582.916 1032,582.916C1032,582.916 1030,579.916 1032,578.916C1034,577.916 1034,569.916 1034,569.916L1043,508.916C1043,508.916 1051,549.916 1056,553.916C1061,557.916 1060,567.916 1060,567.916L1064,655.916C1064,655.916 1060,665.916 1064,667.916C1068,669.916 1085,676.916 1086,666.916C1087,656.916 1092,569.916 1092,565.916C1092,561.916 1091,559.916 1092,556.916C1093,553.916 1091,553.916 1092,553.916C1093,553.916 1090,550.916 1090,548.916L1090,499.916C1090,499.916 1091,489.916 1092,487.916C1093,485.916 1091,483.916 1092,480.916C1093,477.916 1090,467.916 1090,467.916L1045,455.916L994,460.916Z" style="fill:rgb(59,67,83);fill-rule:nonzero;"/>
    </g>
    <g transform="matrix(0.519394,0,0,0.519394,-16.3609,61.5482)">
        <path d="M1029,684.916C1029,684.916 1034,679.916 1027,679.916C1022.51,680.008 1018.08,681.029 1014,682.916L1009,700.916C1009,700.916 988.5,717.416 1011.5,715.416C1034.5,713.416 1031,714.916 1031,714.916C1031,714.916 1038,712.916 1039,710.916C1040,708.916 1037,679.916 1037,679.916C1037,679.916 1034,687.916 1029,684.916Z" style="fill:rgb(47,46,65);fill-rule:nonzero;"/>
    </g>
    <g transform="matrix(0.519394,0,0,0.519394,-16.3609,61.5482)">
        <path d="M1072,684.916C1072,684.916 1067,679.916 1074,679.916C1078.49,680.008 1082.92,681.029 1087,682.916L1092,700.916C1092,700.916 1112.5,717.416 1089.5,715.416C1066.5,713.416 1067,714.916 1067,714.916C1067,714.916 1060,712.916 1059,710.916C1058,708.916 1064,679.916 1064,679.916C1064,679.916 1067,687.916 1072,684.916Z" style="fill:rgb(47,46,65);fill-rule:nonzero;"/>
    </g>
    <g transform="matrix(0.519394,0,0,0.519394,0,157.333)">
        <rect x="286.141" y="177.432" width="8.903" height="351.653" style="fill:rgb(63,61,86);"/>
    </g>
    <g transform="matrix(0.519394,0,0,0.519394,-16.3609,61.5482)">
        <path d="M408.705,406.662C409.271,529.626 322.759,629.71 322.759,629.71C322.759,629.71 235.329,530.428 234.762,407.464C234.195,284.499 320.707,184.416 320.707,184.416C320.707,184.416 408.138,283.697 408.705,406.662Z" style="fill:rgb(115,142,199);fill-rule:nonzero;"/>
    </g>
    <g transform="matrix(0.519394,0,0,0.519394,0,157.333)">
        <rect x="225.5" y="383.5" width="689" height="146" style="fill:rgb(242,242,242);"/>
    </g>
    <g transform="matrix(0.519394,0,0,0.519394,0,157.333)">
        <path d="M203.5,399.5L278.5,242.5L877.5,242.5L933.5,399.5L203.5,399.5Z" style="fill:rgb(59,67,83);fill-rule:nonzero;"/>
    </g>
    <g transform="matrix(0.519394,0,0,0.519394,0,157.333)">
        <rect x="390.5" y="252.5" width="278" height="92" style="fill:rgb(242,242,242);"/>
    </g>
    <g transform="matrix(0.519394,0,0,0.519394,0,157.333)">
        <path d="M408.5,177.5L364.5,269.5L694.5,269.5L668.5,177.5L408.5,177.5Z" style="fill:rgb(59,67,83);fill-rule:nonzero;"/>
    </g>
    <g transform="matrix(0.519394,0,0,0.519394,0,157.333)">
        <rect x="415" y="412.5" width="219.5" height="117" style="fill:rgb(204,204,204);"/>
    </g>
    <g transform="matrix(0.519394,0,0,0.519394,0,157.333)">
        <rect x="252.5" y="416.5" width="117" height="113" style="fill:rgb(204,204,204);"/>
    </g>
    <g transform="matrix(0.519394,0,0,0.519394,0,157.333)">
        <rect x="672.5" y="423.5" width="60.5" height="106" style="fill:rgb(63,61,86);"/>
    </g>
    <g transform="matrix(0.519394,0,0,0.519394,0,157.333)">
        <rect x="0" y="529" width="1137" height="2" style="fill:rgb(63,61,86);"/>
    </g>
    <g transform="matrix(0.519394,0,0,0.519394,0,157.333)">
        <rect x="179.905" y="297.059" width="5.875" height="232.053" style="fill:rgb(63,61,86);"/>
    </g>
    <g transform="matrix(0.519394,0,0,0.519394,-16.3609,61.5482)">
        <path d="M271.497,511.047C271.871,592.191 214.783,658.235 214.783,658.235C214.783,658.235 157.088,592.72 156.714,511.576C156.34,430.433 213.428,364.389 213.428,364.389C213.428,364.389 271.123,429.904 271.497,511.047Z" style="fill:rgb(108,99,255);fill-rule:nonzero;"/>
    </g>
    <g transform="matrix(0.519394,0,0,0.519394,-16.3609,61.5482)">
        <path d="M271.497,511.047C271.871,592.191 214.783,658.235 214.783,658.235C214.783,658.235 157.088,592.72 156.714,511.576C156.34,430.433 213.428,364.389 213.428,364.389C213.428,364.389 271.123,429.904 271.497,511.047Z" style="fill:rgb(112,128,161);fill-opacity:0.1;fill-rule:nonzero;"/>
    </g>
    <g transform="matrix(0.519394,0,0,0.519394,0,157.333)">
        <rect x="103.533" y="297.059" width="5.875" height="232.053" style="fill:rgb(63,61,86);"/>
    </g>
    <g transform="matrix(0.519394,0,0,0.519394,-16.3609,61.5482)">
        <path d="M195.125,511.047C195.499,592.191 138.41,658.235 138.41,658.235C138.41,658.235 80.715,592.72 80.342,511.576C79.968,430.433 137.056,364.389 137.056,364.389C137.056,364.389 194.751,429.904 195.125,511.047Z" style="fill:rgb(115,142,199);fill-rule:nonzero;"/>
    </g>
    <g transform="matrix(0.519394,0,0,0.519394,0,157.333)">
        <rect x="798.5" y="429.5" width="29.5" height="27.5" style="fill:rgb(63,61,86);"/>
    </g>
    <g transform="matrix(0.519394,0,0,0.519394,0,157.333)">
        <rect x="838" y="429.5" width="29.5" height="27.5" style="fill:rgb(63,61,86);"/>
    </g>
    <g transform="matrix(0.519394,0,0,0.519394,0,157.333)">
        <rect x="798.5" y="467" width="29.5" height="28.5" style="fill:rgb(63,61,86);"/>
    </g>
    <g transform="matrix(0.519394,0,0,0.519394,0,157.333)">
        <rect x="838" y="467" width="29.5" height="28.5" style="fill:rgb(63,61,86);"/>
    </g>
    <g transform="matrix(0.519394,0,0,0.519394,0,157.333)">
        <rect x="416" y="277.674" width="23.087" height="21.522" style="fill:rgb(63,61,86);"/>
    </g>
    <g transform="matrix(0.519394,0,0,0.519394,0,157.333)">
        <rect x="446.913" y="277.674" width="23.087" height="21.522" style="fill:rgb(63,61,86);"/>
    </g>
    <g transform="matrix(0.519394,0,0,0.519394,0,157.333)">
        <rect x="416" y="307.022" width="23.087" height="22.304" style="fill:rgb(63,61,86);"/>
    </g>
    <g transform="matrix(0.519394,0,0,0.519394,0,157.333)">
        <rect x="446.913" y="307.022" width="23.087" height="22.304" style="fill:rgb(63,61,86);"/>
    </g>
    <g transform="matrix(0.519394,0,0,0.519394,0,157.333)">
        <rect x="589" y="277.674" width="23.087" height="21.522" style="fill:rgb(63,61,86);"/>
    </g>
    <g transform="matrix(0.519394,0,0,0.519394,0,157.333)">
        <rect x="619.913" y="277.674" width="23.087" height="21.522" style="fill:rgb(63,61,86);"/>
    </g>
    <g transform="matrix(0.519394,0,0,0.519394,0,157.333)">
        <rect x="589" y="307.022" width="23.087" height="22.304" style="fill:rgb(63,61,86);"/>
    </g>
    <g transform="matrix(0.519394,0,0,0.519394,0,157.333)">
        <rect x="619.913" y="307.022" width="23.087" height="22.304" style="fill:rgb(63,61,86);"/>
    </g>
    <g transform="matrix(0.519394,0,0,0.519394,0,157.333)">
        <rect x="503" y="277.674" width="23.087" height="21.522" style="fill:rgb(63,61,86);"/>
    </g>
    <g transform="matrix(0.519394,0,0,0.519394,0,157.333)">
        <rect x="533.913" y="277.674" width="23.087" height="21.522" style="fill:rgb(63,61,86);"/>
    </g>
    <g transform="matrix(0.519394,0,0,0.519394,0,157.333)">
        <rect x="503" y="307.022" width="23.087" height="22.304" style="fill:rgb(63,61,86);"/>
    </g>
    <g transform="matrix(0.519394,0,0,0.519394,0,157.333)">
        <rect x="533.913" y="307.022" width="23.087" height="22.304" style="fill:rgb(63,61,86);"/>
    </g>
    <g transform="matrix(0.519394,0,0,0.519394,0,157.333)">
        <rect x="686" y="434.239" width="14.536" height="13.551" style="fill:rgb(242,242,242);"/>
    </g>
    <g transform="matrix(0.519394,0,0,0.519394,0,157.333)">
        <rect x="705.464" y="434.239" width="14.536" height="13.551" style="fill:rgb(242,242,242);"/>
    </g>
    <g transform="matrix(0.519394,0,0,0.519394,0,157.333)">
        <rect x="686" y="452.717" width="14.536" height="14.043" style="fill:rgb(242,242,242);"/>
    </g>
    <g transform="matrix(0.519394,0,0,0.519394,0,157.333)">
        <rect x="705.464" y="452.717" width="14.536" height="14.043" style="fill:rgb(242,242,242);"/>
    </g>
    <g transform="matrix(0.519394,0,0,0.519394,0,157.333)">
        <circle cx="725" cy="484" r="4" style="fill:rgb(242,242,242);"/>
    </g>
    <g transform="matrix(0.519394,0,0,0.519394,0,157.333)">
        <rect x="415" y="425" width="220" height="2" style="fill:rgb(242,242,242);"/>
    </g>
    <g transform="matrix(0.519394,0,0,0.519394,0,157.333)">
        <rect x="415" y="434" width="220" height="2" style="fill:rgb(242,242,242);"/>
    </g>
    <g transform="matrix(0.519394,0,0,0.519394,0,157.333)">
        <rect x="415" y="443" width="220" height="2" style="fill:rgb(242,242,242);"/>
    </g>
    <g transform="matrix(0.519394,0,0,0.519394,0,157.333)">
        <rect x="415" y="452" width="220" height="2" style="fill:rgb(242,242,242);"/>
    </g>
    <g transform="matrix(0.519394,0,0,0.519394,0,157.333)">
        <rect x="415" y="461" width="220" height="2" style="fill:rgb(242,242,242);"/>
    </g>
    <g transform="matrix(0.519394,0,0,0.519394,0,157.333)">
        <rect x="415" y="470" width="220" height="2" style="fill:rgb(242,242,242);"/>
    </g>
    <g transform="matrix(0.519394,0,0,0.519394,0,157.333)">
        <rect x="415" y="479" width="220" height="2" style="fill:rgb(242,242,242);"/>
    </g>
    <g transform="matrix(0.519394,0,0,0.519394,0,157.333)">
        <rect x="415" y="488" width="220" height="2" style="fill:rgb(242,242,242);"/>
    </g>
    <g transform="matrix(0.519394,0,0,0.519394,0,157.333)">
        <rect x="415" y="497" width="220" height="2" style="fill:rgb(242,242,242);"/>
    </g>
    <g transform="matrix(0.519394,0,0,0.519394,0,157.333)">
        <rect x="415" y="506" width="220" height="2" style="fill:rgb(242,242,242);"/>
    </g>
    <g transform="matrix(0.519394,0,0,0.519394,0,157.333)">
        <rect x="415" y="515" width="220" height="2" style="fill:rgb(242,242,242);"/>
    </g>
    <g transform="matrix(0.519394,0,0,0.519394,0,157.333)">
        <rect x="252.5" y="425" width="117" height="2" style="fill:rgb(242,242,242);"/>
    </g>
    <g transform="matrix(0.519394,0,0,0.519394,0,157.333)">
        <rect x="252.5" y="434" width="117" height="2" style="fill:rgb(242,242,242);"/>
    </g>
    <g transform="matrix(0.519394,0,0,0.519394,0,157.333)">
        <rect x="252.5" y="443" width="117" height="2" style="fill:rgb(242,242,242);"/>
    </g>
    <g transform="matrix(0.519394,0,0,0.519394,0,157.333)">
        <rect x="252.5" y="452" width="117" height="2" style="fill:rgb(242,242,242);"/>
    </g>
    <g transform="matrix(0.519394,0,0,0.519394,0,157.333)">
        <rect x="252.5" y="461" width="117" height="2" style="fill:rgb(242,242,242);"/>
    </g>
    <g transform="matrix(0.519394,0,0,0.519394,0,157.333)">
        <rect x="252.5" y="470" width="117" height="2" style="fill:rgb(242,242,242);"/>
    </g>
    <g transform="matrix(0.519394,0,0,0.519394,0,157.333)">
        <rect x="252.5" y="479" width="117" height="2" style="fill:rgb(242,242,242);"/>
    </g>
    <g transform="matrix(0.519394,0,0,0.519394,0,157.333)">
        <rect x="252.5" y="488" width="117" height="2" style="fill:rgb(242,242,242);"/>
    </g>
    <g transform="matrix(0.519394,0,0,0.519394,0,157.333)">
        <rect x="252.5" y="497" width="117" height="2" style="fill:rgb(242,242,242);"/>
    </g>
    <g transform="matrix(0.519394,0,0,0.519394,0,157.333)">
        <rect x="252.5" y="506" width="117" height="2" style="fill:rgb(242,242,242);"/>
    </g>
    <g transform="matrix(0.519394,0,0,0.519394,0,157.333)">
        <rect x="252.5" y="515" width="117" height="2" style="fill:rgb(242,242,242);"/>
    </g>
    <g transform="matrix(0.519394,0,0,0.519394,0,157.333)">
        <circle cx="877" cy="242" r="81" style="fill:rgb(115,142,199);"/>
    </g>
    <g transform="matrix(0.519394,0,0,0.519394,0,157.333)">
        <path d="M928,234L885,234L885,191L869,191L869,234L826,234L826,250L869,250L869,293L885,293L885,250L928,250L928,234Z" style="fill:white;fill-rule:nonzero;"/>
    </g>
    <g transform="matrix(0.519394,0,0,0.519394,0,157.333)">
        <circle cx="975.5" cy="75.5" r="26" style="fill:rgb(160,97,106);"/>
    </g>
    <g transform="matrix(0.519394,0,0,0.519394,-16.3609,61.5482)">
        <path d="M998,278.916C998,278.916 1002,298.916 1002,301.916C1002,304.916 1019,313.916 1019,313.916L1038,289.916C1038,289.916 1026,272.916 1026,268.916L998,278.916Z" style="fill:rgb(160,97,106);fill-rule:nonzero;"/>
    </g>
    <g transform="matrix(0.519394,0,0,0.519394,-16.3609,61.5482)">
        <path d="M1013,304.916C1013,304.916 1004.28,302.596 1001.64,298.756C1001.64,298.756 974,325.916 974,330.916L996,369.916C996,369.916 996,383.916 998,384.916C1000,385.916 998,384.916 998,388.916C998,392.916 992,418.916 994,422.916C996,426.916 998,423.916 996,429.916C994,435.916 989,467.916 989,467.916C989,467.916 1007,461.916 1033,471.916C1059,481.916 1090,467.916 1090,467.916C1090,467.916 1082,449.916 1084,443.916C1086,437.916 1079,426.916 1079,426.916L1074,334.916C1074,334.916 1081,293.916 1076,291.916L1066,287.916L1033.98,283.98C1033.98,283.98 1026,303.916 1013,304.916Z" style="fill:rgb(208,205,225);fill-rule:nonzero;"/>
    </g>
    <g transform="matrix(0.519394,0,0,0.519394,-16.3609,61.5482)">
        <path d="M984,323.916L974,330.916C974,330.916 969,345.916 974,352.916C979,359.916 981,369.916 981,369.916L1001,367.916L984,323.916Z" style="fill:rgb(208,205,225);fill-rule:nonzero;"/>
    </g>
    <g transform="matrix(0.519394,0,0,0.519394,-16.3609,61.5482)">
        <path d="M1058,332.916C1058,332.916 1052.21,347.807 1053.42,362.54C1053.64,365.177 1054.53,367.716 1056,369.916L985.056,403.597C985.056,403.597 953,406.916 961,420.916C969,434.916 998,413.916 998,413.916C998,413.916 1074,402.916 1080,391.916C1086,380.916 1090,334.916 1090,334.916L1058,332.916Z" style="fill:rgb(160,97,106);fill-rule:nonzero;"/>
    </g>
    <g transform="matrix(0.519394,0,0,0.519394,-16.3609,61.5482)">
        <path d="M987.149,232.438L982.639,230.633C982.639,230.633 992.069,220.251 1005.19,221.154L1001.5,217.091C1001.5,217.091 1010.52,213.48 1018.72,222.959C1023.03,227.942 1028.02,233.799 1031.13,240.397L1035.96,240.397L1033.94,244.836L1041,249.275L1033.75,248.477C1034.44,252.309 1034.2,256.25 1033.07,259.973L1033.26,263.481C1033.26,263.481 1024.87,250.494 1024.87,248.688L1024.87,253.202C1024.87,253.202 1020.36,249.14 1020.36,246.431L1017.9,249.591L1016.67,244.626L1001.5,249.591L1003.96,245.529L994.529,246.883L998.219,241.917C998.219,241.917 987.559,247.785 987.149,252.751C986.739,257.716 981.409,264.035 981.409,264.035L978.949,259.522C978.949,259.522 975.259,239.209 987.149,232.438Z" style="fill:rgb(47,46,65);fill-rule:nonzero;"/>
    </g>
    <g transform="matrix(0.519394,0,0,0.519394,-16.3609,61.5482)">
        <path d="M1061,291.916L1076,291.916C1076,291.916 1087,293.916 1090,313.916C1093,333.916 1096,338.916 1093,338.916C1090,338.916 1054,337.916 1054,336.916C1054,335.916 1061,291.916 1061,291.916Z" style="fill:rgb(208,205,225);fill-rule:nonzero;"/>
    </g>
</svg>
