<?xml version="1.0" encoding="UTF-8" standalone="no"?>
<!DOCTYPE svg PUBLIC "-//W3C//DTD SVG 1.1//EN" "http://www.w3.org/Graphics/SVG/1.1/DTD/svg11.dtd">
<svg width="100%" height="100%" viewBox="0 0 914 483" version="1.1" xmlns="http://www.w3.org/2000/svg" xmlns:xlink="http://www.w3.org/1999/xlink" xml:space="preserve" xmlns:serif="http://www.serif.com/" style="fill-rule:evenodd;clip-rule:evenodd;stroke-linejoin:round;stroke-miterlimit:2;">
    <g transform="matrix(1,0,0,1,-143.393,-208.674)">
        <path d="M942.032,631.563C918.191,631.354 894.387,629.608 870.771,626.335C869.941,626.221 869.112,626.096 868.283,625.981L869.53,402.705C870.354,402.049 871.187,401.404 872.031,400.779C874.823,398.694 877.694,396.74 880.664,394.947C894.972,386.326 911.724,382.38 923.282,386.335L923.462,386.406C925.993,387.259 928.33,388.604 930.34,390.364C940.49,399.381 938.798,417.612 930.605,434.156C946.848,419.317 967.345,407.501 985.64,406.603C1003.49,405.723 1016.23,415.054 1027.07,425.175C1027.42,425.507 1027.77,425.839 1028.12,426.171C1028.3,426.332 1028.47,426.503 1028.65,426.664C1036.9,434.56 1045.04,443.766 1044.06,457.091C1042.98,471.705 1030.74,487.907 1016.47,499.267C1002.22,510.628 986.027,518.177 970.224,525.829C954.431,533.491 938.234,541.781 924.735,554.075C945.799,537.423 969.764,523.996 993.072,519.037C1016.38,514.077 1038.77,518.442 1049.74,533.283C1052.97,537.789 1055.08,543.003 1055.88,548.488C1055.99,549.129 1056.07,549.779 1056.15,550.439C1057.71,564.178 1052.96,580.582 1041.6,594.539C1029.1,609.909 1010.56,620.566 992.955,625.868C975.355,631.17 958.412,631.735 942.032,631.563Z" style="fill:rgb(187,219,231);fill-rule:nonzero;"/>
    </g>
    <g transform="matrix(1,0,0,1,-143.393,-208.674)">
        <path d="M869.068,485.483L869.091,481.214C869.939,479.858 870.777,478.496 871.604,477.127C872.139,476.28 872.654,475.423 873.179,474.566C881.828,460.404 890.124,446.154 898.068,431.815C906.018,417.489 913.602,403.091 920.82,388.621C921.163,387.832 922.028,387.397 922.865,387.592C922.919,387.608 922.969,387.632 923.015,387.663C923.394,387.865 923.551,388.316 923.228,388.975C922.338,390.749 921.448,392.534 920.538,394.309C913.197,408.819 905.489,423.266 897.415,437.651C889.345,452.026 880.918,466.319 872.135,480.53C871.954,480.829 871.762,481.128 871.58,481.427C870.743,482.782 869.905,484.128 869.068,485.483Z" style="fill:white;fill-rule:nonzero;"/>
    </g>
    <g transform="matrix(1,0,0,1,-143.393,-208.674)">
        <path d="M868.76,540.532L868.775,537.892C869.608,537.297 870.441,536.712 871.275,536.116C890.893,522.126 910.512,508.139 930.13,494.154C962.249,471.253 994.367,448.359 1026.49,425.472C1026.66,425.336 1026.86,425.235 1027.07,425.175C1027.78,424.979 1028.19,425.502 1028.12,426.171C1028.04,426.742 1027.72,427.251 1027.23,427.566C1009.22,440.406 991.216,453.242 973.218,466.075C941.26,488.857 909.305,511.635 877.354,534.411C875.326,535.859 873.288,537.308 871.26,538.756C870.427,539.352 869.593,539.947 868.76,540.532Z" style="fill:white;fill-rule:nonzero;"/>
    </g>
    <g transform="matrix(1,0,0,1,-143.393,-208.674)">
        <path d="M884.092,599.349C879.642,599.214 875.264,598.92 870.926,598.535C870.096,598.461 869.267,598.386 868.437,598.311L868.453,595.541C869.282,595.626 870.112,595.711 870.941,595.785C877.208,596.371 883.546,596.786 890.056,596.842C908.104,596.916 926.113,595.157 943.806,591.593C962.856,587.804 981.541,582.364 999.648,575.334C1018.75,567.956 1037.22,559.06 1054.9,548.733C1055.18,548.538 1055.53,548.452 1055.88,548.488C1056.67,548.602 1056.9,549.654 1056.15,550.439C1056,550.595 1055.83,550.728 1055.64,550.837C1053.45,552.114 1051.24,553.369 1049.03,554.6C1031.26,564.547 1012.72,573.061 993.591,580.061C975.425,586.728 956.712,591.8 937.665,595.218C919.995,598.42 902.044,599.804 884.092,599.349Z" style="fill:white;fill-rule:nonzero;"/>
    </g>
    <g transform="matrix(1,0,0,1,-143.393,-208.674)">
        <path d="M862.096,208.674L255.096,208.674C250.315,208.678 246.381,212.612 246.377,217.394L246.377,628.714C246.381,633.496 250.315,637.43 255.096,637.434L862.096,637.434C864.647,637.434 867.072,636.315 868.727,634.374C868.796,634.299 868.86,634.219 868.917,634.134C869.437,633.498 869.859,632.786 870.167,632.024C870.606,630.976 870.83,629.85 870.826,628.714L870.826,217.394C870.821,212.609 866.882,208.674 862.096,208.674ZM868.337,628.714C868.338,629.93 867.979,631.12 867.306,632.134C866.709,633.026 865.897,633.755 864.947,634.254C864.066,634.709 863.088,634.946 862.096,634.944L255.096,634.944C251.68,634.94 248.871,632.13 248.866,628.714L248.866,217.394C248.871,213.978 251.68,211.168 255.096,211.164L862.096,211.164C865.516,211.164 868.332,213.974 868.337,217.394L868.337,628.714Z" style="fill:rgb(63,61,86);fill-rule:nonzero;"/>
    </g>
    <rect x="104.226" y="34.949" width="621.957" height="2.493" style="fill:rgb(63,61,86);"/>
    <circle cx="125.415" cy="18.696" r="7.478" style="fill:rgb(63,61,86);"/>
    <circle cx="146.916" cy="18.696" r="7.478" style="fill:rgb(63,61,86);"/>
    <circle cx="168.416" cy="18.696" r="7.478" style="fill:rgb(63,61,86);"/>
    <g transform="matrix(1,0,0,1,-143.393,-208.674)">
        <path d="M714.696,301.326L402.696,301.326C395.565,301.326 389.696,295.458 389.696,288.326C389.696,281.194 395.565,275.326 402.696,275.326L714.696,275.326C721.828,275.326 727.696,281.194 727.696,288.326C727.696,295.458 721.828,301.326 714.696,301.326ZM402.696,277.326C396.662,277.326 391.696,282.292 391.696,288.326C391.696,294.36 396.662,299.326 402.696,299.326L714.696,299.326C720.731,299.326 725.696,294.36 725.696,288.326C725.696,282.292 720.731,277.326 714.696,277.326L402.696,277.326Z" style="fill:rgb(63,61,86);fill-rule:nonzero;"/>
    </g>
    <g transform="matrix(1,0,0,1,-143.393,-208.674)">
        <path d="M405.302,380.826L377.302,380.826C372.914,380.826 369.302,377.215 369.302,372.826C369.302,368.437 372.914,364.826 377.302,364.826L405.302,364.826C409.691,364.826 413.302,368.437 413.302,372.826C413.302,377.215 409.691,380.826 405.302,380.826Z" style="fill:rgb(204,204,204);fill-rule:nonzero;"/>
    </g>
    <g transform="matrix(1,0,0,1,-143.393,-208.674)">
        <path d="M438.302,407.826L377.302,407.826C372.914,407.826 369.302,404.215 369.302,399.826C369.302,395.437 372.914,391.826 377.302,391.826L438.302,391.826C442.691,391.826 446.302,395.437 446.302,399.826C446.302,404.215 442.691,407.826 438.302,407.826Z" style="fill:rgb(204,204,204);fill-rule:nonzero;"/>
    </g>
    <g transform="matrix(1,0,0,1,-143.393,-208.674)">
        <path d="M410.302,498.826L382.302,498.826C377.914,498.826 374.302,495.215 374.302,490.826C374.302,486.437 377.914,482.826 382.302,482.826L410.302,482.826C414.691,482.826 418.302,486.437 418.302,490.826C418.302,495.215 414.691,498.826 410.302,498.826Z" style="fill:rgb(204,204,204);fill-rule:nonzero;"/>
    </g>
    <g transform="matrix(1,0,0,1,-143.393,-208.674)">
        <path d="M443.302,525.826L382.302,525.826C377.914,525.826 374.302,522.215 374.302,517.826C374.302,513.437 377.914,509.826 382.302,509.826L443.302,509.826C447.691,509.826 451.302,513.437 451.302,517.826C451.302,522.215 447.691,525.826 443.302,525.826Z" style="fill:rgb(204,204,204);fill-rule:nonzero;"/>
    </g>
    <g transform="matrix(1,0,0,1,-143.393,-208.674)">
        <path d="M594.302,495.826L566.302,495.826C561.914,495.826 558.302,492.215 558.302,487.826C558.302,483.437 561.914,479.826 566.302,479.826L594.302,479.826C598.691,479.826 602.302,483.437 602.302,487.826C602.302,492.215 598.691,495.826 594.302,495.826Z" style="fill:rgb(204,204,204);fill-rule:nonzero;"/>
    </g>
    <g transform="matrix(1,0,0,1,-143.393,-208.674)">
        <path d="M627.302,522.826L566.302,522.826C561.914,522.826 558.302,519.215 558.302,514.826C558.302,510.437 561.914,506.826 566.302,506.826L627.302,506.826C631.691,506.826 635.302,510.437 635.302,514.826C635.302,519.215 631.691,522.826 627.302,522.826Z" style="fill:rgb(204,204,204);fill-rule:nonzero;"/>
    </g>
    <g transform="matrix(1,0,0,1,-143.393,-208.674)">
        <path d="M591.302,385.826L563.302,385.826C558.914,385.826 555.302,382.215 555.302,377.826C555.302,373.437 558.914,369.826 563.302,369.826L591.302,369.826C595.691,369.826 599.302,373.437 599.302,377.826C599.302,382.215 595.691,385.826 591.302,385.826Z" style="fill:rgb(204,204,204);fill-rule:nonzero;"/>
    </g>
    <g transform="matrix(1,0,0,1,-143.393,-208.674)">
        <path d="M624.302,412.826L563.302,412.826C558.914,412.826 555.302,409.215 555.302,404.826C555.302,400.437 558.914,396.826 563.302,396.826L624.302,396.826C628.691,396.826 632.302,400.437 632.302,404.826C632.302,409.215 628.691,412.826 624.302,412.826Z" style="fill:rgb(204,204,204);fill-rule:nonzero;"/>
    </g>
    <g transform="matrix(1,0,0,1,-143.393,-208.674)">
        <path d="M778.302,379.826L750.302,379.826C745.914,379.826 742.302,376.215 742.302,371.826C742.302,367.437 745.914,363.826 750.302,363.826L778.302,363.826C782.691,363.826 786.302,367.437 786.302,371.826C786.302,376.215 782.691,379.826 778.302,379.826Z" style="fill:rgb(204,204,204);fill-rule:nonzero;"/>
    </g>
    <g transform="matrix(1,0,0,1,-143.393,-208.674)">
        <path d="M811.302,406.826L750.302,406.826C745.914,406.826 742.302,403.215 742.302,398.826C742.302,394.437 745.914,390.826 750.302,390.826L811.302,390.826C815.691,390.826 819.302,394.437 819.302,398.826C819.302,403.215 815.691,406.826 811.302,406.826Z" style="fill:rgb(204,204,204);fill-rule:nonzero;"/>
    </g>
    <circle cx="184.508" cy="177.652" r="30" style="fill:rgb(224,119,125);"/>
    <g transform="matrix(1,0,0,1,-143.393,-208.674)">
        <path d="M341.901,399.826L313.901,399.826C312.256,399.824 310.903,398.471 310.901,396.826L310.901,375.826C310.903,374.181 312.256,372.828 313.901,372.826L321.783,372.826C322.825,372.822 323.795,373.365 324.338,374.253L326.537,377.826L341.901,377.826C343.546,377.828 344.899,379.181 344.901,380.826L344.901,396.826C344.899,398.471 343.546,399.824 341.901,399.826ZM313.901,374.826C313.353,374.827 312.902,375.278 312.901,375.826L312.901,396.826C312.902,397.374 313.353,397.825 313.901,397.826L341.901,397.826C342.449,397.825 342.9,397.374 342.901,396.826L342.901,380.826C342.9,380.278 342.449,379.827 341.901,379.826L325.419,379.826L322.635,375.302C322.454,375.006 322.13,374.825 321.783,374.826L313.901,374.826Z" style="fill:white;fill-rule:nonzero;"/>
    </g>
    <circle cx="368.508" cy="182.652" r="30" style="fill:rgb(224,119,125);"/>
    <g transform="matrix(1,0,0,1,-143.393,-208.674)">
        <path d="M524.901,410.326L498.901,410.326C497.256,410.324 495.903,408.971 495.901,407.326L495.901,375.326C495.903,373.681 497.256,372.328 498.901,372.326L517.74,372.326C518.424,372.327 519.087,372.56 519.62,372.988L526.78,378.742C527.49,379.309 527.903,380.171 527.901,381.08L527.901,407.326C527.899,408.971 526.546,410.324 524.901,410.326ZM498.901,374.326C498.353,374.327 497.902,374.778 497.901,375.326L497.901,407.326C497.902,407.874 498.353,408.325 498.901,408.326L524.901,408.326C525.449,408.325 525.9,407.874 525.901,407.326L525.901,381.08C525.902,380.777 525.764,380.49 525.527,380.301L518.366,374.546C518.189,374.404 517.968,374.326 517.74,374.326L498.901,374.326Z" style="fill:white;fill-rule:nonzero;"/>
    </g>
    <g transform="matrix(1,0,0,1,-143.393,-208.674)">
        <path d="M519.901,386.326L503.901,386.326C503.352,386.326 502.901,385.875 502.901,385.326C502.901,384.778 503.352,384.326 503.901,384.326L519.901,384.326C520.449,384.326 520.901,384.778 520.901,385.326C520.901,385.875 520.449,386.326 519.901,386.326Z" style="fill:white;fill-rule:nonzero;"/>
    </g>
    <g transform="matrix(1,0,0,1,-143.393,-208.674)">
        <path d="M519.901,392.326L503.901,392.326C503.352,392.326 502.901,391.875 502.901,391.326C502.901,390.778 503.352,390.326 503.901,390.326L519.901,390.326C520.449,390.326 520.901,390.778 520.901,391.326C520.901,391.875 520.449,392.326 519.901,392.326Z" style="fill:white;fill-rule:nonzero;"/>
    </g>
    <g transform="matrix(1,0,0,1,-143.393,-208.674)">
        <path d="M519.901,398.326L503.901,398.326C503.352,398.326 502.901,397.875 502.901,397.326C502.901,396.778 503.352,396.326 503.901,396.326L519.901,396.326C520.449,396.326 520.901,396.778 520.901,397.326C520.901,397.875 520.449,398.326 519.901,398.326Z" style="fill:white;fill-rule:nonzero;"/>
    </g>
    <circle cx="553.508" cy="176.652" r="30" style="fill:rgb(224,119,125);"/>
    <g transform="matrix(1,0,0,1,-143.393,-208.674)">
        <path d="M710.9,396.326L682.9,396.326C681.255,396.324 679.902,394.971 679.9,393.326L679.9,377.326C679.902,375.681 681.255,374.328 682.9,374.326L710.9,374.326C712.545,374.328 713.899,375.681 713.9,377.326L713.9,393.326C713.899,394.971 712.545,396.324 710.9,396.326ZM682.9,376.326C682.352,376.327 681.901,376.778 681.9,377.326L681.9,393.326C681.901,393.875 682.352,394.326 682.9,394.326L710.9,394.326C711.449,394.326 711.9,393.875 711.9,393.326L711.9,377.326C711.9,376.778 711.449,376.327 710.9,376.326L682.9,376.326Z" style="fill:white;fill-rule:nonzero;"/>
    </g>
    <g transform="matrix(1,0,0,1,-143.393,-208.674)">
        <path d="M696.9,387.964C696.339,387.965 695.788,387.808 695.311,387.512L680.37,378.174C680.079,377.992 679.902,377.671 679.902,377.327C679.902,376.778 680.353,376.327 680.902,376.327C681.089,376.327 681.272,376.379 681.431,376.478L696.371,385.815C696.695,386.016 697.107,386.016 697.431,385.815L712.37,376.478C712.529,376.379 712.712,376.327 712.899,376.327C713.447,376.327 713.899,376.778 713.899,377.327C713.899,377.671 713.722,377.992 713.431,378.174L698.491,387.512C698.014,387.808 697.463,387.965 696.9,387.964Z" style="fill:white;fill-rule:nonzero;"/>
    </g>
    <circle cx="184.508" cy="295.652" r="30" style="fill:rgb(224,119,125);"/>
    <g transform="matrix(1,0,0,1,-143.393,-208.674)">
        <path d="M341.901,515.326L313.901,515.326C312.256,515.324 310.903,513.971 310.901,512.326L310.901,496.326C310.903,494.681 312.256,493.328 313.901,493.326L341.901,493.326C343.546,493.328 344.899,494.681 344.901,496.326L344.901,512.326C344.899,513.971 343.546,515.324 341.901,515.326ZM313.901,495.326C313.353,495.327 312.901,495.778 312.901,496.326L312.901,512.326C312.901,512.875 313.353,513.326 313.901,513.326L341.901,513.326C342.449,513.326 342.9,512.875 342.901,512.326L342.901,496.326C342.9,495.778 342.449,495.327 341.901,495.326L313.901,495.326Z" style="fill:rgb(224,119,125);fill-rule:nonzero;"/>
    </g>
    <g transform="matrix(1,0,0,1,-143.393,-208.674)">
        <path d="M337.463,515.326L317.338,515.326C316.241,515.326 315.339,514.424 315.339,513.327C315.339,512.975 315.431,512.63 315.607,512.326L321.668,501.826C322.025,501.208 322.687,500.826 323.401,500.826C324.114,500.826 324.776,501.208 325.133,501.826L329.048,508.607L331.316,504.679C331.673,504.061 332.334,503.679 333.048,503.679C333.762,503.679 334.423,504.061 334.78,504.679L339.195,512.326C339.371,512.63 339.463,512.975 339.463,513.326C339.463,514.423 338.56,515.326 337.463,515.326C337.463,515.326 337.463,515.326 337.463,515.326L337.463,515.326ZM337.463,513.326L333.048,505.679L329.914,511.107C329.736,511.417 329.405,511.608 329.048,511.607C328.691,511.608 328.36,511.417 328.182,511.107L323.401,502.826L317.339,513.326L337.463,513.326Z" style="fill:white;fill-rule:nonzero;"/>
    </g>
    <circle cx="195.508" cy="290.652" r="2" style="fill:white;"/>
    <circle cx="370.508" cy="292.652" r="30" style="fill:rgb(224,119,125);"/>
    <g transform="matrix(1,0,0,1,-143.393,-208.674)">
        <path d="M513.901,501.826C508.964,501.826 504.901,497.763 504.901,492.826C504.901,487.889 508.964,483.826 513.901,483.826C518.838,483.826 522.901,487.889 522.901,492.826C522.895,497.761 518.836,501.821 513.901,501.826ZM513.901,485.826C510.061,485.826 506.901,488.986 506.901,492.826C506.901,496.666 510.061,499.826 513.901,499.826C517.741,499.826 520.901,496.666 520.901,492.826C520.896,488.988 517.739,485.831 513.901,485.826Z" style="fill:white;fill-rule:nonzero;"/>
    </g>
    <g transform="matrix(1,0,0,1,-143.393,-208.674)">
        <path d="M521.901,518.826L505.901,518.826C503.982,518.824 502.403,517.245 502.401,515.326C502.401,509.017 507.592,503.826 513.901,503.826C520.21,503.826 525.401,509.017 525.401,515.326C525.399,517.245 523.82,518.824 521.901,518.826ZM513.901,505.826C508.692,505.832 504.407,510.117 504.401,515.326C504.402,516.149 505.078,516.825 505.901,516.826L521.901,516.826C522.723,516.825 523.4,516.149 523.401,515.326C523.395,510.117 519.11,505.832 513.901,505.826Z" style="fill:white;fill-rule:nonzero;"/>
    </g>
    <path d="M80.937,471.198L93.197,471.198L99.029,423.91L80.935,423.911L80.937,471.198Z" style="fill:rgb(255,184,184);fill-rule:nonzero;"/>
    <g transform="matrix(-1,4.57276e-05,-4.57276e-05,-1,338.575,1158.94)">
        <path d="M221.703,676.369L260.234,676.369L260.234,691.256L236.59,691.256C228.423,691.256 221.703,684.536 221.703,676.369L221.703,676.369Z" style="fill:rgb(59,67,83);fill-rule:nonzero;"/>
    </g>
    <path d="M34.937,471.198L47.197,471.198L53.029,423.91L34.935,423.911L34.937,471.198Z" style="fill:rgb(255,184,184);fill-rule:nonzero;"/>
    <g transform="matrix(-1,4.57276e-05,-4.57276e-05,-1,246.575,1158.94)">
        <path d="M175.703,676.369L214.234,676.369L214.234,691.256L190.59,691.256C182.423,691.256 175.703,684.536 175.703,676.369L175.703,676.369Z" style="fill:rgb(59,67,83);fill-rule:nonzero;"/>
    </g>
    <g transform="matrix(1,0,0,1,-143.393,-208.674)">
        <path d="M179.827,539.034C182.897,537.059 184.758,533.649 184.758,529.999C184.758,527.289 183.733,524.677 181.889,522.691L189.962,408.133L166.709,410.388L166.07,522.575C164.179,524.579 163.124,527.232 163.124,529.988C163.124,535.913 168,540.789 173.925,540.789C176.021,540.789 178.072,540.179 179.827,539.034L179.827,539.034Z" style="fill:rgb(255,184,184);fill-rule:nonzero;"/>
    </g>
    <g transform="matrix(1,0,0,1,-143.393,-208.674)">
        <path d="M224.695,656.055C222.43,656.048 220.503,654.338 220.227,652.09L213.1,592.487C212.891,590.736 211.389,589.402 209.625,589.402C207.909,589.402 206.434,590.664 206.168,592.359L197.191,649.427C196.856,651.61 194.954,653.236 192.745,653.227L178.195,653.227C175.726,653.227 173.695,651.196 173.695,648.727C173.695,648.716 173.695,648.704 173.695,648.693L180.639,522.159C180.645,519.942 182.297,518.046 184.493,517.739L238.487,509.901C238.7,509.87 238.916,509.855 239.132,509.855C241.601,509.855 243.633,511.887 243.633,514.356C243.633,514.366 243.633,514.376 243.633,514.387L242.691,650.943C242.675,653.319 240.779,655.294 238.405,655.406L224.909,656.05C224.837,656.054 224.766,656.055 224.695,656.055Z" style="fill:rgb(59,67,83);fill-rule:nonzero;"/>
    </g>
    <g transform="matrix(1,0,0,1,-143.393,-208.674)">
        <path d="M196.703,526.939C191.509,526.919 186.358,526.002 181.477,524.228C179.788,523.606 178.634,522.022 178.559,520.223C178.093,509.887 175.368,456.679 167.434,424.224C164.287,411.232 169.287,397.552 180.071,389.651C180.498,389.345 180.933,389.043 181.376,388.748C190.695,382.544 202.599,381.611 212.772,386.287C223.28,390.989 230.622,400.831 232.135,412.244L245.073,508.295C245.24,509.508 244.904,510.738 244.141,511.696C243.396,512.648 242.291,513.253 241.088,513.369C236.605,513.816 227.307,515.554 215.408,522.165C209.686,525.335 203.244,526.979 196.703,526.939Z" style="fill:rgb(122,118,173);fill-rule:nonzero;"/>
    </g>
    <g transform="matrix(1,0,0,1,-143.393,-208.674)">
        <path d="M180.886,447.321L159.595,441.548C157.214,440.9 155.787,438.41 156.43,436.027L163.914,408.422C165.375,403.036 170.3,399.268 175.881,399.268C182.683,399.268 188.28,404.865 188.28,411.667C188.28,411.894 188.273,412.122 188.261,412.349L186.557,443.225C186.426,445.597 184.439,447.478 182.064,447.478C181.666,447.478 181.27,447.425 180.886,447.321Z" style="fill:rgb(122,118,173);fill-rule:nonzero;"/>
    </g>
    <circle cx="61.193" cy="140.01" r="24.561" style="fill:rgb(255,184,184);"/>
    <g transform="matrix(1,0,0,1,-143.393,-208.674)">
        <path d="M293.59,396.939C293.467,397.478 293.387,398.027 293.351,398.579L250.393,423.361L239.952,417.35L228.821,431.922L251.158,447.843L300.166,409.18C301.332,409.611 302.565,409.832 303.808,409.832C309.566,409.832 314.304,405.094 314.304,399.337C314.304,393.579 309.566,388.841 303.808,388.841C298.952,388.841 294.699,392.211 293.59,396.939L293.59,396.939Z" style="fill:rgb(255,184,184);fill-rule:nonzero;"/>
    </g>
    <g transform="matrix(1,0,0,1,-143.393,-208.674)">
        <path d="M246.833,424.557L228.329,436.565C226.257,437.906 223.45,437.308 222.104,435.24L206.534,411.248C205.23,409.238 204.536,406.893 204.536,404.498C204.536,397.696 210.133,392.099 216.935,392.099C220.222,392.099 223.378,393.407 225.702,395.732L247.566,417.6C248.409,418.444 248.884,419.589 248.884,420.782C248.884,422.305 248.111,423.728 246.833,424.557Z" style="fill:rgb(122,118,173);fill-rule:nonzero;"/>
    </g>
    <g transform="matrix(1,0,0,1,-143.393,-208.674)">
        <path d="M187.206,368.116C191.788,372.996 200.297,370.376 200.894,363.708C200.941,363.191 200.938,362.67 200.884,362.153C200.576,359.199 198.869,356.518 199.278,353.399C199.371,352.623 199.66,351.883 200.118,351.25C203.769,346.361 212.34,353.437 215.786,349.011C217.899,346.297 215.416,342.024 217.037,338.99C219.177,334.987 225.516,336.962 229.491,334.769C233.914,332.33 233.649,325.544 230.738,321.417C227.187,316.383 220.962,313.697 214.814,313.31C208.667,312.923 202.562,314.585 196.822,316.821C190.301,319.363 183.834,322.875 179.821,328.609C174.941,335.582 174.472,344.957 176.912,353.111C178.397,358.071 183.464,364.13 187.206,368.116Z" style="fill:rgb(59,67,83);fill-rule:nonzero;"/>
    </g>
    <g transform="matrix(1,0,0,1,-143.393,-208.674)">
        <path d="M284.393,691.326L144.393,691.326C143.844,691.326 143.393,690.875 143.393,690.326C143.393,689.777 143.844,689.326 144.393,689.326L284.393,689.326C284.942,689.326 285.393,689.777 285.393,690.326C285.393,690.875 284.942,691.326 284.393,691.326Z" style="fill:rgb(63,61,86);fill-rule:nonzero;"/>
    </g>
</svg>
