<?xml version="1.0" encoding="UTF-8" standalone="no"?>
<!DOCTYPE svg PUBLIC "-//W3C//DTD SVG 1.1//EN" "http://www.w3.org/Graphics/SVG/1.1/DTD/svg11.dtd">
<svg width="100%" height="100%" viewBox="0 0 635 585" version="1.1" xmlns="http://www.w3.org/2000/svg" xmlns:xlink="http://www.w3.org/1999/xlink" xml:space="preserve" xmlns:serif="http://www.serif.com/" style="fill-rule:evenodd;clip-rule:evenodd;stroke-linejoin:round;stroke-miterlimit:2;">
    <g transform="matrix(1,0,0,1,-282.806,-157.825)">
        <path d="M574.1,479.328C573.987,479.328 573.916,479.325 573.891,479.323L560.327,479.325L560.327,477.325L573.94,477.325C574.255,477.336 580.686,477.518 586.611,470.328C595.44,459.613 602.691,433.088 587.092,367.572C566.117,279.477 583.611,201.649 592.106,172.277C592.359,171.399 592.487,170.491 592.487,169.578C592.487,164.228 588.085,159.825 582.735,159.825C582.731,159.825 582.727,159.825 582.723,159.825L380.148,159.825C377.027,159.829 374.088,161.325 372.248,163.846C368.65,168.796 363.711,178.306 360.621,195.501L358.652,195.148C361.81,177.579 366.909,167.789 370.63,162.67C372.847,159.632 376.387,157.83 380.148,157.825L582.723,157.825C582.727,157.825 582.731,157.825 582.735,157.825C589.182,157.825 594.487,163.131 594.487,169.578C594.487,170.679 594.333,171.774 594.028,172.832C585.577,202.052 568.173,279.476 589.038,367.109C604.857,433.547 597.252,460.646 588.088,471.681C582.043,478.959 575.382,479.328 574.1,479.328Z" style="fill:rgb(230,230,230);fill-rule:nonzero;"/>
    </g>
    <g transform="matrix(1,0,0,1,-282.806,-157.825)">
        <path d="M537.6,515.828C537.487,515.828 537.416,515.825 537.391,515.823L523.827,515.825L523.827,513.825L537.44,513.825C537.757,513.834 544.186,514.018 550.111,506.828C558.94,496.113 566.191,469.588 550.592,404.072C529.617,315.977 547.111,238.149 555.606,208.777C555.859,207.899 555.987,206.991 555.987,206.078C555.987,200.728 551.585,196.325 546.235,196.325C546.231,196.325 546.227,196.325 546.223,196.325L343.648,196.325C340.527,196.329 337.588,197.825 335.748,200.346C332.15,205.296 327.211,214.806 324.121,232.001L322.152,231.648C325.31,214.079 330.409,204.289 334.13,199.17C336.347,196.132 339.887,194.33 343.648,194.325L546.223,194.325C546.227,194.325 546.231,194.325 546.235,194.325C552.682,194.325 557.987,199.631 557.987,206.078C557.987,207.179 557.833,208.274 557.528,209.332C549.077,238.552 531.673,315.976 552.538,403.609C568.357,470.047 560.752,497.146 551.588,508.181C545.543,515.459 538.882,515.828 537.6,515.828Z" style="fill:rgb(204,204,204);fill-rule:nonzero;"/>
    </g>
    <g transform="matrix(1,0,0,1,-282.806,-157.825)">
        <path d="M501.1,552.328C500.987,552.328 500.916,552.325 500.891,552.323L301.438,552.325C301.433,552.325 301.429,552.325 301.424,552.325C294.978,552.325 289.674,547.02 289.674,540.575C289.674,539.084 289.957,537.607 290.509,536.223C297.746,518.142 307.49,474.764 291.441,387.383C272.49,284.203 289.456,246.914 297.63,235.67C299.847,232.632 303.387,230.83 307.148,230.825L509.723,230.825C509.727,230.825 509.731,230.825 509.735,230.825C516.182,230.825 521.487,236.131 521.487,242.578C521.487,243.679 521.333,244.774 521.028,245.832C512.577,275.052 495.173,352.476 516.038,440.109C531.857,506.547 524.252,533.646 515.087,544.681C509.043,551.959 502.382,552.328 501.1,552.328ZM307.148,232.825C304.027,232.829 301.088,234.325 299.248,236.846C291.225,247.881 274.597,284.603 293.408,387.022C308.74,470.496 301.304,514.636 292.366,536.966C291.144,539.956 291.512,543.369 293.343,546.03C295.159,548.715 298.197,550.327 301.438,550.325L500.94,550.325C501.255,550.34 507.686,550.518 513.611,543.328C522.44,532.613 529.691,506.088 514.092,440.572C493.117,352.477 510.611,274.649 519.106,245.277C519.359,244.399 519.487,243.491 519.487,242.578C519.487,237.228 515.085,232.825 509.735,232.825C509.731,232.825 509.727,232.825 509.723,232.825L307.148,232.825Z" style="fill:rgb(63,61,86);fill-rule:nonzero;"/>
    </g>
    <g transform="matrix(1,0,0,1,-282.806,-157.825)">
        <path d="M475.267,320.825L316.267,320.825C311.879,320.825 308.267,317.214 308.267,312.825C308.267,308.436 311.879,304.825 316.267,304.825L475.267,304.825C479.656,304.825 483.267,308.436 483.267,312.825C483.267,317.214 479.656,320.825 475.267,320.825Z" style="fill:rgb(128,143,176);fill-rule:nonzero;"/>
    </g>
    <g transform="matrix(1,0,0,1,-282.806,-157.825)">
        <path d="M475.267,354.825L316.267,354.825C311.879,354.825 308.267,351.214 308.267,346.825C308.267,342.436 311.879,338.825 316.267,338.825L475.267,338.825C479.656,338.825 483.267,342.436 483.267,346.825C483.267,351.214 479.656,354.825 475.267,354.825Z" style="fill:rgb(204,204,204);fill-rule:nonzero;"/>
    </g>
    <g transform="matrix(1,0,0,1,-282.806,-157.825)">
        <path d="M475.267,388.825L316.267,388.825C311.879,388.825 308.267,385.214 308.267,380.825C308.267,376.436 311.879,372.825 316.267,372.825L475.267,372.825C479.656,372.825 483.267,376.436 483.267,380.825C483.267,385.214 479.656,388.825 475.267,388.825Z" style="fill:rgb(204,204,204);fill-rule:nonzero;"/>
    </g>
    <g transform="matrix(1,0,0,1,-282.806,-157.825)">
        <path d="M487.267,422.825L328.267,422.825C323.879,422.825 320.267,419.214 320.267,414.825C320.267,410.436 323.879,406.825 328.267,406.825L487.267,406.825C491.656,406.825 495.267,410.436 495.267,414.825C495.267,419.214 491.656,422.825 487.267,422.825Z" style="fill:rgb(204,204,204);fill-rule:nonzero;"/>
    </g>
    <g transform="matrix(1,0,0,1,-282.806,-157.825)">
        <path d="M487.267,456.825L328.267,456.825C323.879,456.825 320.267,453.214 320.267,448.825C320.267,444.436 323.879,440.825 328.267,440.825L487.267,440.825C491.656,440.825 495.267,444.436 495.267,448.825C495.267,453.214 491.656,456.825 487.267,456.825Z" style="fill:rgb(204,204,204);fill-rule:nonzero;"/>
    </g>
    <g transform="matrix(1,0,0,1,-282.806,-157.825)">
        <path d="M391.267,286.825L316.267,286.825C311.879,286.825 308.267,283.214 308.267,278.825C308.267,274.436 311.879,270.825 316.267,270.825L391.267,270.825C395.656,270.825 399.267,274.436 399.267,278.825C399.267,283.214 395.656,286.825 391.267,286.825Z" style="fill:rgb(128,143,176);fill-rule:nonzero;"/>
    </g>
    <g transform="matrix(1,0,0,1,-282.806,-157.825)">
        <path d="M381.583,511.647C383.197,504.812 390.781,502.571 396.981,502.822C400.899,503.086 404.785,503.701 408.592,504.659C412.576,505.551 416.522,506.606 420.447,507.725C427.646,509.778 434.77,512.261 442.087,513.866C448.178,515.202 454.798,515.986 460.873,514.141C466.712,512.368 471.666,508.015 473.255,501.997C474.752,496.325 472.697,490.124 467.201,487.532C462.189,485.169 455.858,486.37 453.374,491.716C450.573,497.742 453.372,504.315 457.807,508.676C460.327,511.043 463.088,513.14 466.044,514.933C469.045,516.978 472.385,518.474 475.908,519.351C481.693,520.587 488.584,518.766 491.568,513.239C492.231,511.988 492.63,510.614 492.74,509.202C492.916,507.28 489.915,507.292 489.74,509.202C489.234,514.705 482.789,517.283 477.969,516.679C474.716,516.14 471.609,514.934 468.844,513.137C466.175,511.581 463.646,509.797 461.286,507.804C457.198,504.267 453.366,498.445 456.111,492.925C458.347,488.43 464.175,488.475 467.719,491.374C472.012,494.885 471.246,501.256 468.415,505.426C465.28,510.042 459.598,511.977 454.241,512.186C448.42,512.412 442.648,511.077 437.084,509.497C430.172,507.534 423.328,505.337 416.382,503.489C412.439,502.44 408.465,501.493 404.451,500.756C400.655,499.92 396.756,499.65 392.882,499.955C386.622,500.678 380.232,504.322 378.69,510.849C378.247,512.727 381.139,513.528 381.583,511.647L381.583,511.647Z" style="fill:rgb(59,67,83);fill-rule:nonzero;"/>
    </g>
    <g transform="matrix(1,0,0,1,-282.806,-157.825)">
        <path d="M688.083,681.265C688.255,700.956 689.698,720.615 692.401,740.12C692.495,740.805 692.598,741.49 692.693,742.175L877.096,741.145C877.637,740.464 878.17,739.776 878.686,739.079C880.408,736.774 882.021,734.402 883.503,731.949C890.622,720.132 893.881,706.297 890.615,696.751L890.557,696.603C889.852,694.512 888.741,692.582 887.288,690.922C879.841,682.539 864.784,683.937 851.12,690.703C863.375,677.288 873.134,660.36 873.876,645.25C874.603,630.512 866.896,619.983 858.537,611.036C858.263,610.74 857.989,610.453 857.715,610.165C857.582,610.017 857.44,609.877 857.308,609.73C850.786,602.911 843.183,596.189 832.178,597.002C820.109,597.896 806.728,608.005 797.345,619.785C787.962,631.557 781.728,644.931 775.408,657.982C769.08,671.026 762.234,684.402 752.079,695.551C765.833,678.155 776.921,658.362 781.018,639.112C785.114,619.862 781.509,601.374 769.251,592.308C765.53,589.64 761.224,587.903 756.694,587.241C756.165,587.153 755.628,587.081 755.082,587.018C743.735,585.727 730.188,589.652 718.661,599.032C705.967,609.361 697.165,624.673 692.787,639.209C688.408,653.744 687.941,667.738 688.083,681.265Z" style="fill:rgb(187,219,231);fill-rule:nonzero;"/>
    </g>
    <g transform="matrix(1,0,0,1,-282.806,-157.825)">
        <path d="M808.729,741.527L812.255,741.507C813.375,740.807 814.5,740.115 815.63,739.431C816.33,738.99 817.038,738.565 817.746,738.131C829.442,730.988 841.211,724.136 853.054,717.575C864.885,711.009 876.777,704.746 888.727,698.785C889.378,698.501 889.738,697.787 889.577,697.095C889.564,697.051 889.544,697.009 889.518,696.972C889.351,696.659 888.979,696.529 888.435,696.796C886.969,697.531 885.495,698.266 884.029,699.018C872.046,705.081 860.114,711.446 848.234,718.114C836.361,724.78 824.557,731.739 812.82,738.993C812.573,739.143 812.326,739.301 812.079,739.451C810.96,740.143 809.849,740.835 808.729,741.527Z" style="fill:white;fill-rule:nonzero;"/>
    </g>
    <g transform="matrix(1,0,0,1,-282.806,-157.825)">
        <path d="M763.264,741.781L765.445,741.768C765.937,741.08 766.42,740.392 766.912,739.704C778.466,723.501 790.018,707.298 801.568,691.095C820.481,664.569 839.39,638.043 858.292,611.516C858.404,611.374 858.487,611.21 858.537,611.036C858.699,610.449 858.268,610.104 857.715,610.165C857.243,610.232 856.823,610.5 856.563,610.898C845.959,625.774 835.357,640.645 824.758,655.51C805.943,681.903 787.13,708.294 768.321,734.683C767.124,736.358 765.928,738.041 764.731,739.716C764.24,740.404 763.748,741.092 763.264,741.781Z" style="fill:white;fill-rule:nonzero;"/>
    </g>
    <g transform="matrix(1,0,0,1,-282.806,-157.825)">
        <path d="M714.688,729.118C714.8,732.793 715.043,736.409 715.36,739.992C715.422,740.677 715.483,741.362 715.545,742.047L717.833,742.034C717.763,741.349 717.693,740.664 717.632,739.979C717.148,734.803 716.805,729.569 716.759,724.193C716.698,709.287 718.15,694.413 721.094,679.801C724.223,664.067 728.716,648.636 734.522,633.681C740.615,617.909 747.962,602.65 756.492,588.051C756.652,587.813 756.724,587.526 756.694,587.241C756.599,586.589 755.731,586.395 755.082,587.018C754.954,587.141 754.844,587.28 754.754,587.433C753.699,589.248 752.663,591.068 751.646,592.893C743.431,607.574 736.4,622.885 730.618,638.683C725.112,653.687 720.923,669.141 718.1,684.872C715.456,699.466 714.312,714.292 714.688,729.118Z" style="fill:white;fill-rule:nonzero;"/>
    </g>
    <g transform="matrix(1,0,0,1,-282.806,-157.825)">
        <path d="M491.811,512.358C491.241,511.883 490.911,511.178 490.911,510.437C490.911,509.155 491.897,508.07 493.173,507.948C498.627,507.421 504.132,507.986 509.366,509.608L562.681,526.073C564.98,526.783 566.558,528.923 566.558,531.328C566.558,534.346 564.075,536.828 561.058,536.828C560.508,536.828 559.961,536.746 559.435,536.584L506.12,520.118C500.883,518.506 496.018,515.868 491.811,512.358Z" style="fill:rgb(59,67,83);fill-rule:nonzero;"/>
    </g>
    <g transform="matrix(1,0,0,1,-282.806,-157.825)">
        <path d="M710.358,580.757C706.375,579.087 703.77,575.17 703.77,570.851C703.77,568.782 704.368,566.757 705.49,565.02L696.351,517.229L719.643,515.413L721.049,562.16C723.785,564.196 725.401,567.413 725.401,570.824C725.401,576.749 720.525,581.625 714.6,581.625C713.142,581.625 711.699,581.33 710.358,580.757Z" style="fill:rgb(255,184,184);fill-rule:nonzero;"/>
    </g>
    <g transform="matrix(1,0,0,1,-282.806,-157.825)">
        <path d="M694.914,556.092L671.191,445.609C670.932,444.402 670.801,443.171 670.801,441.936C670.801,432.336 678.701,424.436 688.301,424.436C696.52,424.436 703.686,430.227 705.411,438.263L729.134,548.744C729.649,551.157 728.091,553.568 725.679,554.089L700.259,559.547C699.948,559.614 699.631,559.648 699.313,559.648C697.199,559.648 695.357,558.158 694.914,556.092Z" style="fill:rgb(224,119,125);fill-rule:nonzero;"/>
    </g>
    <path d="M373.17,572.064L360.911,572.064L355.078,524.776L373.173,524.777L373.17,572.064Z" style="fill:rgb(255,184,184);fill-rule:nonzero;"/>
    <path d="M352.154,568.561L375.797,568.561L375.797,583.448L337.267,583.448C337.267,583.448 337.267,583.448 337.267,583.448C337.267,575.281 343.987,568.561 352.154,568.561Z" style="fill:rgb(59,67,83);fill-rule:nonzero;"/>
    <path d="M414.17,571.064L401.911,571.064L396.078,523.776L414.173,523.777L414.17,571.064Z" style="fill:rgb(255,184,184);fill-rule:nonzero;"/>
    <path d="M393.154,567.561L416.797,567.561L416.797,582.448L378.267,582.448C378.267,582.448 378.267,582.448 378.267,582.448C378.267,574.281 384.987,567.561 393.154,567.561Z" style="fill:rgb(59,67,83);fill-rule:nonzero;"/>
    <g transform="matrix(1,0,0,1,-282.806,-157.825)">
        <path d="M641.288,721.068C640.36,720.307 639.777,719.202 639.672,718.006L625.419,561.227C625.407,561.091 625.401,560.956 625.401,560.82C625.401,558.415 627.329,556.413 629.732,556.322L701.212,553.642C701.267,553.64 701.323,553.639 701.379,553.639C703.848,553.639 705.88,555.671 705.88,558.14C705.88,558.195 705.879,558.249 705.878,558.304L700.164,714.481C700.077,716.731 698.317,718.589 696.074,718.797L681.661,720.107C681.526,720.12 681.39,720.126 681.254,720.126C678.898,720.126 676.92,718.276 676.764,715.925L670.149,616.708C670.13,615.934 669.488,615.307 668.714,615.307C668.694,615.307 668.674,615.308 668.654,615.309L668.648,615.309C668.629,615.308 668.61,615.308 668.592,615.308C667.813,615.308 667.168,615.941 667.155,616.72L661.236,716.606C661.114,718.806 659.385,720.606 657.192,720.816L644.601,722.076C643.406,722.199 642.212,721.836 641.288,721.068L641.288,721.068Z" style="fill:rgb(59,67,83);fill-rule:nonzero;"/>
    </g>
    <circle cx="385.977" cy="218.962" r="24.561" style="fill:rgb(255,184,184);"/>
    <g transform="matrix(1,0,0,1,-282.806,-157.825)">
        <path d="M621.485,562.288C620.6,561.283 620.213,559.931 620.432,558.609C624.967,531.048 622.411,490.535 619.469,461.402C617.907,445.693 624.877,430.295 637.71,421.101L650.537,410.107C651.389,409.384 652.477,408.999 653.594,409.025L685.46,409.935C686.609,409.966 687.702,410.438 688.513,411.252L693.438,422.156L693.488,422.193C705.395,430.946 712.135,445.124 711.403,459.884L706.713,556.82C706.589,559.144 704.691,561.013 702.366,561.101L625.019,563.818C624.969,563.819 624.919,563.82 624.869,563.82C623.574,563.822 622.339,563.263 621.485,562.288Z" style="fill:rgb(224,119,125);fill-rule:nonzero;"/>
    </g>
    <g transform="matrix(1,0,0,1,-282.806,-157.825)">
        <path d="M528.709,521.837C528.707,521.749 528.706,521.661 528.706,521.573C528.706,515.68 533.555,510.831 539.449,510.831C539.993,510.831 540.537,510.872 541.075,510.955L580.94,483.056L592.13,503.564L550.053,523.98C548.961,528.906 544.554,532.443 539.508,532.443C533.657,532.443 528.815,527.688 528.709,521.837L528.709,521.837Z" style="fill:rgb(255,184,184);fill-rule:nonzero;"/>
    </g>
    <g transform="matrix(1,0,0,1,-282.806,-157.825)">
        <path d="M562.258,526.687C561.078,526.509 560.016,525.865 559.313,524.901L543.928,503.941C542.47,501.95 542.906,499.113 544.893,497.65L635.988,430.787C638.99,428.584 642.618,427.395 646.343,427.395C655.943,427.395 663.843,435.295 663.843,444.895C663.843,450.463 661.186,455.709 656.698,459.003L565.603,525.866C564.835,526.433 563.905,526.739 562.95,526.739C562.718,526.739 562.487,526.722 562.258,526.687Z" style="fill:rgb(224,119,125);fill-rule:nonzero;"/>
    </g>
    <g transform="matrix(1,0,0,1,-282.806,-157.825)">
        <path d="M670.04,398.652C673.298,394.658 672.941,388.575 670.327,384.134C667.713,379.693 663.275,376.634 658.709,374.245C654.142,371.856 649.292,369.977 644.994,367.132C640.697,364.288 640.885,352.245 639.74,347.22L642.469,348.129C641.42,346.787 641.084,342.822 640.035,341.481C643.119,341.785 645.49,344.713 648.574,345.018L646.794,340.241C657.369,339.589 663.943,346.937 674.517,346.286C679.757,345.963 685.446,345.758 689.753,348.759C693.496,351.366 695.391,355.879 696.634,360.268C699.303,369.691 699.718,380.246 695.108,388.887C690.498,397.528 679.871,403.351 670.588,400.231L670.04,398.652Z" style="fill:rgb(59,67,83);fill-rule:nonzero;"/>
    </g>
    <g transform="matrix(1,0,0,1,-282.806,-157.825)">
        <path d="M535.194,741.825L916.194,741.825C916.742,741.825 917.194,741.374 917.194,740.825C917.194,740.277 916.742,739.825 916.194,739.825L535.194,739.825C534.645,739.825 534.194,740.277 534.194,740.825C534.194,741.374 534.645,741.825 535.194,741.825Z" style="fill:rgb(63,61,86);fill-rule:nonzero;"/>
    </g>
</svg>
