<?xml version="1.0" encoding="UTF-8" standalone="no"?>
<!DOCTYPE svg PUBLIC "-//W3C//DTD SVG 1.1//EN" "http://www.w3.org/Graphics/SVG/1.1/DTD/svg11.dtd">
<svg width="100%" height="100%" viewBox="0 0 591 591" version="1.1" xmlns="http://www.w3.org/2000/svg" xmlns:xlink="http://www.w3.org/1999/xlink" xml:space="preserve" xmlns:serif="http://www.serif.com/" style="fill-rule:evenodd;clip-rule:evenodd;stroke-linejoin:round;stroke-miterlimit:2;">
    <g transform="matrix(1.34322,0,0,1.34322,-100.674,-54.0318)">
        <path d="M104.347,236.203C104.347,233.208 105.537,230.336 107.655,228.218C129.53,206.343 253.505,82.368 286.311,49.562C290.713,45.16 297.847,45.15 302.261,49.541C335.206,82.313 459.871,206.325 481.875,228.214C484.006,230.334 485.204,233.215 485.204,236.221L485.204,461.935C485.204,464.93 484.014,467.802 481.896,469.92C479.779,472.038 476.906,473.227 473.911,473.227C418.027,473.227 171.524,473.227 115.64,473.227C112.645,473.227 109.773,472.038 107.655,469.92C105.537,467.802 104.347,464.93 104.347,461.935C104.347,418.748 104.347,265.031 104.347,236.203ZM426.01,259.013C426.01,257.358 425.352,255.771 424.182,254.6C410.207,240.625 320.263,150.681 299.189,129.607C298.018,128.437 296.431,127.779 294.776,127.779C293.12,127.779 291.533,128.437 290.362,129.607C269.288,150.681 179.344,240.625 165.369,254.6C164.199,255.771 163.541,257.358 163.541,259.013C163.541,276.804 163.541,381.186 163.541,407.932C163.541,411.379 166.336,414.174 169.783,414.174C205.536,414.174 384.015,414.174 419.768,414.174C423.216,414.174 426.01,411.379 426.01,407.932C426.01,381.186 426.01,276.804 426.01,259.013Z" style="fill:rgb(224,119,125);"/>
    </g>
    <g transform="matrix(1.34322,0,0,1.34322,-100.674,-54.0318)">
        <path d="M163.541,383.424C163.541,383.424 163.541,405.79 163.541,405.79C163.541,408.013 164.425,410.146 165.997,411.718C167.569,413.29 169.701,414.174 171.925,414.174L180.363,414.174C181.792,418.969 182.706,422.234 182.706,422.234L113.661,459.84L104.347,450.815C104.347,450.815 163.541,413.058 163.541,383.424Z" style="fill:rgb(161,79,83);"/>
    </g>
    <g transform="matrix(-1.34322,0,0,1.34322,691.225,-54.0318)">
        <path d="M163.541,383.424C163.541,383.424 163.541,405.79 163.541,405.79C163.541,408.013 164.425,410.146 165.997,411.718C167.569,413.29 169.701,414.174 171.925,414.174L180.363,414.174C181.792,418.969 182.706,422.234 182.706,422.234L113.661,459.84L104.347,450.815C104.347,450.815 163.541,413.058 163.541,383.424Z" style="fill:rgb(161,79,83);"/>
    </g>
    <g transform="matrix(1.34322,0,0,1.34322,-100.674,-54.0318)">
        <path d="M394.102,224.66C392.493,222.292 391.486,220.762 391.486,220.762L438.494,184.771C438.494,184.771 412.659,229.528 416.043,246.601L394.102,224.66Z" style="fill:rgb(161,79,83);"/>
    </g>
    <g transform="matrix(-1.34322,0,0,1.34322,690.656,-54.0318)">
        <path d="M394.102,224.66C392.493,222.292 391.486,220.762 391.486,220.762L438.494,184.771C438.494,184.771 412.659,229.528 416.043,246.601L394.102,224.66Z" style="fill:rgb(161,79,83);"/>
    </g>
    <g transform="matrix(1.34322,0,0,1.34322,-368.657,-169.944)">
        <path d="M404.171,217.504C446.797,269.109 471.159,336.063 467.891,408.112C465.32,464.789 446.008,516.778 414.947,559.521L317.432,559.521C309.933,559.521 303.855,553.443 303.855,545.944C303.855,541.078 303.855,536.771 303.855,536.771C365.003,506.495 406.914,469.487 409.817,405.478C412.137,354.311 389.092,306.852 350.04,271.634L404.171,217.504Z" style="fill:rgb(224,119,125);"/>
    </g>
    <g transform="matrix(-1.34322,0,0,1.34322,959.208,-169.944)">
        <path d="M404.171,217.504C446.797,269.109 471.159,336.063 467.891,408.112C465.32,464.789 446.008,516.778 414.947,559.521L317.432,559.521C309.933,559.521 303.855,553.443 303.855,545.944C303.855,541.078 303.855,536.771 303.855,536.771C365.003,506.495 406.914,469.487 409.817,405.478C412.137,354.311 389.092,306.852 350.04,271.634L404.171,217.504Z" style="fill:rgb(224,119,125);"/>
    </g>
</svg>
